<svg id="svg" version="1.1" xmlns="http://www.w3.org/2000/svg" xmlns:xlink="http://www.w3.org/1999/xlink" width="400" height="224.09756097560975" viewBox="0, 0, 400,224.09756097560975"><g id="svgg"><path id="path0" d="M12.257 15.488 C 12.197 15.586,12.221 15.667,12.312 15.667 C 12.418 15.667,12.422 15.856,12.324 16.200 C 12.240 16.493,12.234 16.774,12.311 16.825 C 12.388 16.875,12.459 17.142,12.468 17.417 C 12.477 17.692,12.550 18.257,12.631 18.672 C 12.711 19.088,12.765 19.591,12.750 19.789 C 12.736 19.988,12.794 20.108,12.880 20.055 C 12.969 19.999,12.989 20.104,12.927 20.302 C 12.867 20.491,12.892 20.782,12.982 20.948 C 13.124 21.208,13.615 23.124,13.723 23.842 C 13.743 23.975,13.805 24.158,13.861 24.250 C 13.917 24.342,14.060 24.867,14.177 25.417 C 14.295 25.967,14.415 26.492,14.443 26.583 C 14.471 26.675,14.540 26.975,14.597 27.250 C 14.654 27.525,14.927 28.500,15.204 29.417 C 15.480 30.333,15.700 31.101,15.692 31.123 C 15.683 31.145,15.809 31.482,15.971 31.873 C 16.133 32.264,16.253 32.754,16.239 32.964 C 16.224 33.173,16.251 33.304,16.300 33.256 C 16.382 33.173,17.318 35.791,17.399 36.333 C 17.420 36.471,17.526 36.746,17.634 36.946 C 17.743 37.145,17.859 37.445,17.893 37.612 C 17.927 37.780,18.054 38.179,18.175 38.500 C 18.296 38.821,18.375 39.112,18.350 39.148 C 18.325 39.184,18.386 39.263,18.485 39.324 C 18.584 39.385,18.682 39.642,18.703 39.895 C 18.724 40.148,18.832 40.430,18.944 40.523 C 19.056 40.615,19.101 40.810,19.045 40.956 C 18.978 41.132,19.009 41.181,19.138 41.101 C 19.246 41.035,19.333 41.064,19.333 41.166 C 19.333 41.349,19.732 42.302,20.339 43.569 C 20.511 43.928,20.614 44.284,20.566 44.361 C 20.519 44.437,20.550 44.500,20.634 44.500 C 20.754 44.500,21.153 45.333,21.434 46.167 C 21.449 46.212,21.516 46.419,21.584 46.625 C 21.651 46.831,21.772 47.000,21.853 47.000 C 21.934 47.000,22.000 47.094,22.000 47.210 C 22.000 47.325,22.487 48.383,23.082 49.561 C 23.677 50.739,24.122 51.770,24.072 51.852 C 24.022 51.933,24.064 52.000,24.167 52.000 C 24.269 52.000,24.307 52.075,24.250 52.167 C 24.193 52.258,24.231 52.333,24.333 52.333 C 24.436 52.333,24.473 52.408,24.417 52.500 C 24.360 52.592,24.391 52.667,24.486 52.667 C 24.581 52.667,24.774 52.892,24.917 53.167 C 25.059 53.442,25.130 53.667,25.076 53.667 C 25.021 53.667,25.095 53.785,25.240 53.930 C 25.385 54.075,25.460 54.262,25.408 54.347 C 25.356 54.431,25.406 54.500,25.518 54.500 C 25.630 54.500,25.677 54.545,25.621 54.601 C 25.566 54.657,25.666 54.858,25.843 55.049 C 26.133 55.360,26.242 55.695,26.125 55.909 C 26.102 55.951,26.233 56.107,26.417 56.255 C 26.600 56.403,26.637 56.476,26.500 56.417 C 26.281 56.322,26.281 56.336,26.502 56.529 C 26.892 56.870,27.410 57.729,27.142 57.591 C 27.018 57.528,27.040 57.577,27.191 57.702 C 27.342 57.826,27.706 58.375,28.000 58.922 C 28.295 59.469,28.609 60.007,28.699 60.118 C 28.789 60.228,28.819 60.388,28.767 60.472 C 28.715 60.556,28.859 60.764,29.086 60.935 C 29.314 61.106,29.500 61.331,29.500 61.436 C 29.500 61.540,29.616 61.722,29.758 61.840 C 29.899 61.957,29.975 62.158,29.926 62.285 C 29.877 62.413,29.911 62.471,30.002 62.415 C 30.147 62.326,30.193 62.432,30.156 62.765 C 30.149 62.819,30.281 62.975,30.447 63.111 C 30.614 63.247,30.657 63.311,30.544 63.254 C 30.408 63.185,30.371 63.238,30.436 63.407 C 30.490 63.549,30.598 63.626,30.676 63.578 C 30.753 63.530,30.898 63.643,30.998 63.829 C 31.097 64.015,31.120 64.169,31.048 64.172 C 30.976 64.175,31.049 64.254,31.212 64.349 C 31.374 64.443,31.464 64.591,31.410 64.677 C 31.357 64.763,31.387 64.833,31.477 64.833 C 31.676 64.833,32.389 65.958,32.389 66.273 C 32.389 66.398,32.452 66.500,32.530 66.500 C 32.711 66.500,33.889 68.336,33.889 68.619 C 33.889 68.737,33.925 68.797,33.970 68.752 C 34.103 68.619,35.032 69.979,34.926 70.152 C 34.872 70.239,34.916 70.365,35.023 70.431 C 35.155 70.512,35.175 70.476,35.085 70.317 C 34.859 69.923,35.221 70.352,35.938 71.333 C 36.307 71.837,36.959 72.726,37.388 73.308 C 37.816 73.890,38.117 74.445,38.057 74.542 C 37.996 74.641,38.027 74.669,38.130 74.606 C 38.327 74.484,38.868 75.142,38.740 75.349 C 38.697 75.419,38.749 75.531,38.856 75.598 C 38.986 75.678,39.007 75.645,38.917 75.500 C 38.827 75.356,38.847 75.322,38.974 75.401 C 39.080 75.466,39.167 75.587,39.167 75.669 C 39.167 75.751,39.354 76.006,39.583 76.235 C 39.813 76.464,40.000 76.772,40.000 76.919 C 40.000 77.066,40.075 77.140,40.167 77.083 C 40.319 76.989,40.408 77.217,40.349 77.554 C 40.336 77.630,40.383 77.656,40.454 77.613 C 40.525 77.570,40.727 77.726,40.903 77.961 C 41.107 78.233,41.137 78.343,40.987 78.265 C 40.857 78.197,40.880 78.249,41.039 78.379 C 41.198 78.510,41.273 78.677,41.206 78.752 C 41.138 78.826,41.173 78.835,41.283 78.772 C 41.506 78.644,42.374 79.799,42.230 80.032 C 42.182 80.111,42.208 80.154,42.288 80.129 C 42.468 80.073,43.500 81.223,43.500 81.480 C 43.500 81.583,43.579 81.667,43.677 81.667 C 43.774 81.667,43.807 81.742,43.750 81.833 C 43.693 81.925,43.752 82.000,43.881 82.000 C 44.010 82.000,44.251 82.150,44.417 82.333 C 44.583 82.517,44.660 82.667,44.589 82.667 C 44.518 82.667,44.844 83.033,45.313 83.481 C 45.783 83.928,46.167 84.420,46.167 84.574 C 46.167 84.727,46.235 84.811,46.318 84.760 C 46.516 84.637,47.861 86.247,47.704 86.420 C 47.638 86.493,47.669 86.505,47.773 86.445 C 47.960 86.338,48.610 87.130,48.537 87.375 C 48.517 87.444,48.590 87.481,48.701 87.458 C 48.811 87.435,48.905 87.504,48.909 87.611 C 48.913 87.718,48.985 87.868,49.068 87.944 C 49.159 88.027,49.163 87.982,49.078 87.833 C 48.956 87.618,48.975 87.615,49.216 87.811 C 49.370 87.936,49.448 88.123,49.388 88.227 C 49.329 88.331,49.336 88.367,49.404 88.305 C 49.565 88.161,50.177 88.682,50.062 88.867 C 50.014 88.945,50.075 88.988,50.196 88.962 C 50.317 88.937,50.398 89.010,50.375 89.125 C 50.352 89.240,50.391 89.315,50.462 89.292 C 50.667 89.225,51.840 90.603,51.705 90.752 C 51.638 90.826,51.665 90.840,51.765 90.784 C 51.936 90.686,53.145 91.776,53.160 92.042 C 53.164 92.110,53.223 92.172,53.292 92.179 C 53.551 92.203,53.988 92.718,53.887 92.881 C 53.829 92.975,53.857 93.005,53.948 92.949 C 54.135 92.833,55.226 93.885,55.075 94.036 C 55.022 94.090,55.114 94.122,55.281 94.108 C 55.447 94.095,55.565 94.177,55.542 94.292 C 55.519 94.406,55.575 94.500,55.668 94.500 C 55.956 94.500,57.830 96.371,57.720 96.549 C 57.662 96.642,57.690 96.672,57.780 96.616 C 57.997 96.482,59.212 97.728,59.045 97.912 C 58.974 97.990,59.002 98.005,59.106 97.945 C 59.210 97.886,59.388 97.949,59.502 98.085 C 59.615 98.222,59.652 98.333,59.583 98.333 C 59.515 98.333,59.552 98.445,59.665 98.581 C 59.778 98.718,59.941 98.786,60.027 98.733 C 60.198 98.628,60.887 99.300,61.053 99.732 C 61.110 99.879,61.266 100.000,61.400 100.000 C 61.533 100.000,62.001 100.343,62.438 100.762 C 62.876 101.181,63.371 101.597,63.538 101.687 C 63.709 101.779,63.792 101.938,63.728 102.050 C 63.665 102.160,63.674 102.195,63.748 102.128 C 63.823 102.060,64.056 102.192,64.267 102.419 C 64.478 102.647,64.723 102.833,64.811 102.833 C 64.898 102.833,65.147 103.044,65.364 103.301 C 65.580 103.558,65.892 103.820,66.056 103.883 C 66.228 103.949,66.304 104.080,66.235 104.191 C 66.166 104.302,66.187 104.340,66.284 104.280 C 66.472 104.164,68.197 105.428,68.810 106.132 C 69.026 106.380,69.148 106.482,69.081 106.358 C 68.998 106.204,69.099 106.224,69.395 106.418 C 69.634 106.575,69.782 106.782,69.723 106.877 C 69.662 106.975,69.695 107.002,69.797 106.939 C 69.898 106.877,70.057 106.959,70.151 107.121 C 70.246 107.284,70.325 107.357,70.328 107.283 C 70.331 107.210,70.595 107.349,70.915 107.593 C 71.235 107.837,71.454 108.106,71.403 108.189 C 71.351 108.273,71.380 108.321,71.468 108.296 C 71.661 108.240,72.335 108.946,72.639 109.524 C 72.851 109.928,72.759 110.707,72.386 111.667 C 72.333 111.804,72.268 112.072,72.242 112.262 C 72.217 112.452,72.080 112.885,71.938 113.224 C 71.797 113.562,71.683 113.857,71.686 113.878 C 71.688 113.899,71.501 114.442,71.269 115.083 C 71.037 115.725,70.767 116.569,70.667 116.958 C 70.568 117.348,70.434 117.667,70.369 117.667 C 70.303 117.667,70.239 117.855,70.226 118.084 C 70.213 118.314,70.144 118.632,70.074 118.792 C 70.003 118.952,69.930 119.140,69.910 119.208 C 69.891 119.277,69.860 119.352,69.841 119.375 C 69.823 119.398,69.780 119.565,69.746 119.747 C 69.712 119.929,69.605 120.104,69.508 120.136 C 69.411 120.169,69.372 120.261,69.422 120.342 C 69.499 120.467,69.021 122.360,68.709 123.167 C 68.576 123.509,68.580 123.495,68.434 124.292 C 68.362 124.681,68.231 125.000,68.142 125.000 C 68.053 125.000,68.025 125.072,68.080 125.161 C 68.134 125.249,68.056 125.793,67.906 126.369 C 67.626 127.448,67.576 127.670,67.396 128.667 C 67.337 128.987,67.235 129.325,67.168 129.417 C 67.100 129.508,67.041 129.696,67.037 129.833 C 67.032 129.971,66.904 130.646,66.752 131.333 C 66.067 134.434,65.598 137.659,65.411 140.545 C 65.377 141.074,65.310 141.570,65.261 141.648 C 65.213 141.727,65.129 142.644,65.074 143.687 C 65.020 144.730,64.916 145.983,64.844 146.472 C 64.694 147.488,64.737 157.702,64.894 158.333 C 64.951 158.563,65.039 159.537,65.089 160.500 C 65.140 161.462,65.213 162.475,65.252 162.750 C 65.291 163.025,65.359 163.819,65.403 164.515 C 65.540 166.693,66.020 169.828,66.663 172.750 C 66.764 173.208,66.997 174.296,67.180 175.167 C 67.363 176.037,67.637 177.313,67.787 178.000 C 67.937 178.688,68.078 179.400,68.100 179.583 C 68.121 179.767,68.157 179.954,68.178 180.000 C 68.200 180.046,68.232 180.158,68.249 180.250 C 68.267 180.342,68.376 180.642,68.492 180.917 C 68.607 181.192,68.722 181.604,68.748 181.833 C 68.773 182.063,68.837 182.362,68.889 182.500 C 69.018 182.838,69.442 184.248,69.691 185.167 C 69.931 186.055,69.919 186.017,70.043 186.333 C 70.187 186.699,70.497 187.730,70.506 187.872 C 70.511 187.939,70.621 188.248,70.751 188.559 C 70.881 188.870,70.940 189.171,70.882 189.229 C 70.825 189.286,70.865 189.333,70.972 189.333 C 71.079 189.333,71.155 189.390,71.140 189.458 C 71.126 189.527,71.175 189.733,71.250 189.917 C 71.820 191.317,72.333 192.704,72.333 192.847 C 72.333 192.941,72.486 193.354,72.673 193.764 C 72.860 194.175,72.968 194.583,72.913 194.672 C 72.859 194.761,72.884 194.833,72.971 194.833 C 73.057 194.833,73.171 194.965,73.225 195.125 C 73.278 195.285,73.435 195.717,73.575 196.083 C 73.714 196.450,73.829 196.875,73.831 197.028 C 73.832 197.181,73.906 197.331,73.995 197.361 C 74.084 197.392,74.185 197.567,74.220 197.750 C 74.255 197.933,74.439 198.418,74.630 198.826 C 74.821 199.234,74.940 199.628,74.895 199.701 C 74.850 199.774,74.887 199.833,74.977 199.833 C 75.066 199.833,75.268 200.227,75.425 200.708 C 75.582 201.190,75.775 201.665,75.854 201.765 C 75.933 201.865,75.942 202.009,75.874 202.084 C 75.806 202.159,75.838 202.170,75.945 202.109 C 76.066 202.039,76.208 202.202,76.320 202.540 C 76.692 203.660,77.543 204.318,78.108 203.923 C 78.299 203.788,78.508 203.730,78.570 203.792 C 78.633 203.855,78.639 203.787,78.583 203.641 C 78.527 203.496,78.598 203.259,78.740 203.117 C 78.883 202.974,79.000 202.777,79.000 202.679 C 79.000 202.580,79.079 202.500,79.177 202.500 C 79.274 202.500,79.307 202.425,79.250 202.333 C 79.193 202.242,79.226 202.167,79.323 202.167 C 79.421 202.167,79.500 202.033,79.500 201.870 C 79.500 201.707,79.610 201.417,79.744 201.226 C 79.878 201.034,79.941 200.830,79.883 200.772 C 79.825 200.714,79.865 200.667,79.972 200.667 C 80.079 200.667,80.151 200.610,80.131 200.542 C 80.091 200.402,80.619 198.979,80.951 198.333 C 81.068 198.104,81.165 197.816,81.166 197.692 C 81.167 197.460,81.662 196.314,81.825 196.167 C 81.875 196.121,81.937 195.899,81.962 195.674 C 81.988 195.449,82.075 195.224,82.155 195.174 C 82.236 195.124,82.355 194.801,82.420 194.458 C 82.484 194.114,82.601 193.833,82.680 193.833 C 82.759 193.833,82.780 193.721,82.727 193.585 C 82.674 193.445,82.745 193.293,82.889 193.238 C 83.030 193.183,83.108 193.040,83.061 192.920 C 83.015 192.799,83.054 192.653,83.148 192.595 C 83.242 192.537,83.277 192.380,83.225 192.246 C 83.174 192.112,83.248 191.958,83.389 191.904 C 83.530 191.850,83.604 191.698,83.554 191.567 C 83.504 191.436,83.555 191.218,83.668 191.081 C 83.782 190.945,83.812 190.833,83.737 190.833 C 83.662 190.833,83.690 190.743,83.800 190.633 C 83.910 190.523,84.000 190.328,84.000 190.200 C 84.000 190.072,84.104 189.731,84.232 189.442 C 84.359 189.153,84.633 188.354,84.841 187.667 C 85.049 186.979,85.282 186.335,85.358 186.235 C 85.435 186.135,85.448 186.003,85.387 185.943 C 85.327 185.883,85.349 185.833,85.437 185.833 C 85.524 185.833,85.605 185.702,85.617 185.542 C 85.648 185.120,85.981 183.806,86.155 183.417 C 86.238 183.233,86.464 182.446,86.658 181.667 C 87.326 178.984,87.607 177.996,87.681 178.069 C 87.721 178.110,87.765 177.905,87.777 177.613 C 87.799 177.116,88.002 176.016,88.582 173.250 C 88.717 172.608,88.862 171.875,88.906 171.621 C 88.950 171.367,89.035 171.078,89.096 170.979 C 89.158 170.880,89.238 170.413,89.276 169.941 C 89.313 169.469,89.390 168.896,89.445 168.667 C 89.590 168.070,89.612 167.858,89.822 165.083 C 89.925 163.708,90.083 162.096,90.171 161.500 C 90.900 156.583,90.898 147.861,90.167 141.507 C 90.088 140.823,90.056 140.210,90.096 140.146 C 90.136 140.081,90.098 139.665,90.010 139.222 C 89.853 138.427,89.639 136.820,89.626 136.333 C 89.622 136.196,89.488 135.333,89.328 134.417 C 89.169 133.500,89.078 132.682,89.128 132.599 C 89.178 132.516,89.129 132.504,89.020 132.571 C 88.881 132.657,88.845 132.568,88.898 132.273 C 88.940 132.042,88.909 131.830,88.829 131.801 C 88.748 131.773,88.610 131.337,88.521 130.833 C 88.432 130.329,88.235 129.242,88.083 128.417 C 87.931 127.592,87.800 126.676,87.792 126.382 C 87.784 126.088,87.733 125.875,87.679 125.909 C 87.625 125.942,87.363 125.170,87.096 124.193 C 86.830 123.216,86.392 121.667,86.124 120.750 C 85.855 119.833,85.638 118.952,85.641 118.792 C 85.644 118.631,85.568 118.500,85.472 118.500 C 85.376 118.500,85.341 118.387,85.394 118.250 C 85.446 118.112,85.409 118.000,85.310 118.000 C 85.212 118.000,85.171 117.897,85.219 117.770 C 85.268 117.644,85.236 117.470,85.150 117.383 C 85.063 117.296,84.963 117.081,84.927 116.904 C 84.890 116.728,84.620 115.908,84.325 115.083 C 84.031 114.258,83.792 113.415,83.794 113.209 C 83.796 113.004,83.737 112.873,83.662 112.919 C 83.516 113.010,83.113 111.831,82.891 110.667 C 82.865 110.529,82.800 110.229,82.747 110.000 C 82.646 109.567,83.876 107.904,84.165 108.083 C 84.237 108.127,84.398 108.033,84.523 107.873 C 84.731 107.607,84.722 107.602,84.417 107.812 C 84.233 107.938,84.295 107.844,84.554 107.602 C 84.812 107.360,85.096 107.206,85.183 107.260 C 85.270 107.314,85.321 107.286,85.296 107.198 C 85.229 106.965,86.508 105.985,86.712 106.112 C 86.807 106.170,86.838 106.143,86.781 106.050 C 86.653 105.843,88.071 104.798,88.255 104.964 C 88.327 105.030,88.347 105.008,88.299 104.917 C 88.250 104.825,88.626 104.417,89.135 104.010 C 89.643 103.603,89.999 103.378,89.925 103.510 C 89.852 103.642,90.032 103.468,90.326 103.123 C 90.620 102.779,90.941 102.547,91.039 102.608 C 91.142 102.671,91.170 102.640,91.104 102.534 C 90.994 102.356,91.621 101.893,91.875 101.965 C 91.944 101.984,92.000 101.889,92.000 101.752 C 92.000 101.616,92.294 101.310,92.654 101.072 C 93.014 100.834,93.351 100.528,93.403 100.392 C 93.455 100.256,93.584 100.199,93.691 100.265 C 93.800 100.333,93.840 100.313,93.782 100.219 C 93.672 100.040,95.126 98.723,95.359 98.792 C 95.436 98.815,95.500 98.741,95.500 98.628 C 95.500 98.442,96.815 97.106,97.130 96.973 C 97.202 96.942,97.434 96.672,97.644 96.373 C 97.854 96.074,98.095 95.872,98.179 95.925 C 98.264 95.977,98.333 95.903,98.333 95.760 C 98.333 95.617,98.407 95.500,98.498 95.500 C 98.589 95.500,99.161 94.977,99.770 94.337 C 100.379 93.697,100.954 93.221,101.047 93.279 C 101.141 93.337,101.172 93.310,101.116 93.220 C 100.982 93.003,102.228 91.788,102.412 91.955 C 102.490 92.026,102.505 91.998,102.445 91.894 C 102.314 91.664,102.725 91.286,102.917 91.460 C 102.992 91.528,103.006 91.500,102.948 91.398 C 102.890 91.297,103.197 90.872,103.630 90.456 C 104.062 90.039,104.676 89.410,104.993 89.057 C 105.310 88.705,105.628 88.435,105.701 88.458 C 105.774 88.481,105.833 88.392,105.833 88.260 C 105.833 88.128,105.920 87.966,106.026 87.901 C 106.155 87.821,106.174 87.858,106.082 88.016 C 106.002 88.154,106.008 88.193,106.098 88.111 C 106.182 88.035,106.250 87.918,106.250 87.851 C 106.250 87.784,106.581 87.359,106.985 86.906 C 107.390 86.454,107.659 86.196,107.584 86.333 C 107.502 86.482,107.508 86.527,107.598 86.444 C 107.682 86.368,107.750 86.256,107.750 86.194 C 107.751 85.934,108.539 85.005,108.684 85.094 C 108.770 85.147,108.831 85.130,108.818 85.054 C 108.757 84.704,108.854 84.500,109.083 84.500 C 109.221 84.500,109.333 84.397,109.333 84.270 C 109.333 84.144,109.465 83.938,109.625 83.812 C 109.896 83.600,109.899 83.608,109.667 83.917 C 109.435 84.226,109.438 84.233,109.708 84.021 C 109.869 83.895,110.000 83.693,110.000 83.571 C 110.000 83.449,110.131 83.273,110.292 83.180 C 110.452 83.087,110.515 83.008,110.433 83.005 C 110.350 83.002,110.416 82.852,110.580 82.671 C 110.744 82.489,110.945 82.382,111.026 82.433 C 111.108 82.483,111.157 82.463,111.135 82.387 C 111.065 82.142,111.512 81.488,111.679 81.591 C 111.768 81.646,111.821 81.592,111.796 81.471 C 111.771 81.349,111.825 81.262,111.917 81.276 C 112.008 81.290,112.193 81.182,112.328 81.036 C 112.546 80.798,112.538 80.783,112.248 80.894 C 111.968 81.002,111.978 80.961,112.320 80.598 C 112.537 80.366,112.791 80.224,112.883 80.281 C 112.978 80.339,113.000 80.302,112.935 80.196 C 112.795 79.970,113.490 78.974,113.697 79.102 C 113.777 79.151,113.824 79.130,113.802 79.054 C 113.726 78.789,114.184 78.158,114.370 78.273 C 114.492 78.348,114.520 78.291,114.450 78.111 C 114.381 77.930,114.429 77.833,114.589 77.833 C 114.723 77.833,114.815 77.777,114.793 77.708 C 114.714 77.465,115.531 76.333,115.707 76.441 C 115.805 76.502,115.838 76.475,115.780 76.381 C 115.722 76.288,115.823 76.077,116.004 75.913 C 116.185 75.749,116.333 75.552,116.333 75.476 C 116.333 75.316,116.726 74.803,117.355 74.142 C 117.596 73.889,117.766 73.655,117.734 73.623 C 117.702 73.591,117.894 73.325,118.162 73.032 C 118.429 72.740,118.611 72.500,118.566 72.500 C 118.521 72.500,118.751 72.152,119.076 71.726 C 119.401 71.300,119.667 70.883,119.667 70.800 C 119.667 70.716,119.744 70.694,119.837 70.753 C 119.931 70.811,119.988 70.794,119.962 70.715 C 119.896 70.507,122.311 66.833,122.514 66.833 C 122.609 66.833,122.640 66.758,122.583 66.667 C 122.527 66.575,122.560 66.500,122.657 66.500 C 122.754 66.500,122.833 66.417,122.833 66.315 C 122.833 66.125,123.837 64.500,123.955 64.500 C 123.990 64.500,123.966 64.587,123.901 64.692 C 123.826 64.813,123.855 64.840,123.977 64.764 C 124.084 64.698,124.130 64.575,124.078 64.491 C 123.972 64.319,125.002 62.667,125.215 62.667 C 125.291 62.667,125.310 62.597,125.257 62.511 C 125.204 62.425,125.368 62.147,125.622 61.892 C 125.876 61.638,126.064 61.369,126.041 61.296 C 125.994 61.148,126.722 59.926,127.144 59.443 C 127.291 59.275,127.413 59.050,127.414 58.943 C 127.418 58.670,128.992 55.833,129.140 55.833 C 129.207 55.833,129.275 55.666,129.290 55.462 C 129.306 55.257,129.422 55.013,129.548 54.920 C 129.675 54.826,129.830 54.541,129.894 54.285 C 129.965 54.000,130.082 53.865,130.197 53.936 C 130.308 54.004,130.339 53.977,130.272 53.870 C 130.135 53.647,131.007 51.818,131.195 51.934 C 131.269 51.980,131.287 51.907,131.235 51.772 C 131.183 51.636,131.299 51.367,131.493 51.173 C 131.687 50.980,131.801 50.748,131.746 50.659 C 131.691 50.570,131.762 50.453,131.905 50.398 C 132.048 50.343,132.125 50.234,132.076 50.155 C 131.994 50.022,132.754 48.350,132.980 48.167 C 133.037 48.121,133.108 47.971,133.138 47.833 C 133.167 47.696,133.262 47.558,133.347 47.527 C 133.432 47.497,133.462 47.407,133.413 47.327 C 133.364 47.248,133.476 46.899,133.662 46.552 C 133.848 46.205,134.000 45.870,134.000 45.808 C 134.000 45.712,134.715 44.119,135.746 41.917 C 136.298 40.736,136.859 39.353,136.929 39.000 C 137.066 38.301,137.717 36.667,137.858 36.667 C 137.947 36.667,137.974 36.593,137.919 36.503 C 137.863 36.414,137.912 36.170,138.026 35.962 C 138.140 35.754,138.248 35.508,138.264 35.417 C 138.324 35.092,139.028 32.745,139.164 32.417 C 139.396 31.860,139.526 31.437,139.601 31.000 C 139.640 30.771,139.777 30.321,139.905 30.000 C 140.271 29.085,140.373 28.775,140.424 28.417 C 140.502 27.878,140.996 25.772,141.108 25.500 C 141.164 25.363,141.234 25.100,141.262 24.917 C 141.290 24.733,141.476 23.983,141.674 23.250 C 141.873 22.517,142.075 21.729,142.123 21.500 C 142.172 21.271,142.273 21.004,142.349 20.908 C 142.424 20.812,142.443 20.568,142.390 20.366 C 142.338 20.165,142.368 20.000,142.459 20.000 C 142.549 20.000,142.629 19.756,142.637 19.458 C 142.645 19.160,142.740 18.301,142.849 17.548 C 143.129 15.606,142.186 14.532,141.196 15.664 C 141.003 15.885,140.990 15.885,141.091 15.667 C 141.154 15.529,141.014 15.630,140.779 15.890 C 140.521 16.176,140.271 16.315,140.150 16.240 C 140.028 16.164,139.992 16.185,140.059 16.293 C 140.171 16.475,139.031 17.285,138.779 17.203 C 138.704 17.179,138.687 17.232,138.742 17.321 C 138.866 17.521,138.262 17.868,138.079 17.702 C 138.006 17.637,137.995 17.669,138.055 17.773 C 138.171 17.977,137.794 18.376,137.559 18.298 C 137.481 18.271,137.392 18.325,137.361 18.417 C 137.260 18.719,136.965 18.998,136.833 18.916 C 136.761 18.872,136.579 19.025,136.428 19.257 C 136.275 19.490,136.070 19.626,135.967 19.563 C 135.862 19.498,135.828 19.524,135.889 19.622 C 136.021 19.835,135.616 20.196,135.317 20.131 C 135.197 20.105,135.092 20.196,135.083 20.333 C 135.075 20.471,134.978 20.565,134.867 20.542 C 134.757 20.519,134.667 20.612,134.667 20.750 C 134.667 20.887,134.592 21.009,134.500 21.021 C 134.408 21.032,134.265 21.051,134.181 21.063 C 134.097 21.074,133.965 21.152,133.889 21.235 C 133.807 21.325,133.846 21.331,133.984 21.251 C 134.142 21.160,134.179 21.178,134.099 21.308 C 134.034 21.413,133.891 21.502,133.782 21.504 C 133.673 21.506,133.359 21.768,133.085 22.087 C 132.811 22.406,132.455 22.667,132.293 22.667 C 132.132 22.667,132.019 22.760,132.042 22.875 C 132.065 22.990,131.984 23.063,131.863 23.038 C 131.741 23.012,131.687 23.065,131.742 23.154 C 131.845 23.320,131.273 23.718,131.134 23.578 C 131.091 23.536,130.875 23.707,130.653 23.959 L 130.250 24.417 130.750 24.001 L 131.250 23.585 130.766 24.120 C 130.500 24.414,130.207 24.608,130.115 24.552 C 130.024 24.495,129.998 24.529,130.058 24.626 C 130.119 24.724,129.861 25.048,129.485 25.346 C 129.109 25.643,128.464 26.231,128.051 26.652 C 127.639 27.072,127.360 27.304,127.432 27.167 C 127.503 27.029,127.052 27.460,126.429 28.123 C 125.806 28.787,125.218 29.281,125.122 29.222 C 125.027 29.163,124.996 29.191,125.053 29.285 C 125.181 29.492,124.085 30.524,123.907 30.364 C 123.837 30.301,123.837 30.349,123.907 30.470 C 123.991 30.615,123.916 30.720,123.685 30.780 C 123.494 30.830,123.375 30.933,123.421 31.007 C 123.511 31.153,123.193 31.410,122.917 31.414 C 122.825 31.416,122.750 31.567,122.750 31.750 C 122.750 31.970,122.647 32.075,122.447 32.058 C 122.268 32.043,122.176 32.118,122.223 32.240 C 122.308 32.460,121.363 33.445,121.135 33.375 C 121.061 33.352,121.018 33.390,121.039 33.458 C 121.109 33.682,120.285 34.656,120.114 34.551 C 120.023 34.495,119.997 34.527,120.056 34.622 C 120.155 34.782,119.806 35.215,119.651 35.124 C 119.614 35.101,119.603 35.116,119.627 35.155 C 119.704 35.280,118.780 36.167,118.573 36.167 C 118.463 36.167,118.271 36.298,118.145 36.458 C 117.934 36.728,117.941 36.732,118.250 36.503 C 118.579 36.259,118.579 36.260,118.269 36.624 C 118.097 36.826,117.872 36.944,117.769 36.886 C 117.667 36.828,117.637 36.839,117.702 36.912 C 117.879 37.107,117.514 37.695,117.299 37.562 C 117.197 37.499,117.162 37.524,117.220 37.619 C 117.354 37.835,116.770 38.377,116.585 38.209 C 116.509 38.140,116.501 38.177,116.566 38.292 C 116.632 38.406,116.607 38.500,116.510 38.500 C 116.413 38.500,116.333 38.579,116.333 38.677 C 116.333 38.987,115.116 40.321,114.930 40.215 C 114.831 40.159,114.804 40.173,114.869 40.245 C 115.045 40.440,114.681 41.028,114.466 40.896 C 114.365 40.833,114.327 40.855,114.382 40.944 C 114.437 41.033,114.314 41.288,114.109 41.511 C 113.904 41.734,113.429 42.306,113.053 42.783 C 112.678 43.259,112.306 43.597,112.227 43.533 C 112.148 43.469,112.137 43.483,112.203 43.565 C 112.371 43.771,111.682 44.696,111.462 44.560 C 111.355 44.494,111.330 44.527,111.401 44.641 C 111.466 44.747,111.436 44.833,111.333 44.833 C 111.231 44.833,111.196 44.913,111.257 45.011 C 111.317 45.109,111.210 45.230,111.019 45.280 C 110.827 45.330,110.706 45.428,110.749 45.498 C 110.857 45.674,110.062 46.506,109.920 46.365 C 109.857 46.302,109.821 46.325,109.839 46.417 C 109.911 46.770,109.826 47.015,109.667 46.917 C 109.575 46.860,109.500 46.898,109.500 47.000 C 109.500 47.261,108.401 48.673,108.272 48.578 C 108.214 48.535,108.202 48.548,108.245 48.606 C 108.348 48.745,107.737 49.639,107.178 50.167 C 106.936 50.396,106.818 50.546,106.918 50.500 C 107.018 50.454,106.967 50.539,106.807 50.688 C 106.646 50.837,106.552 50.996,106.597 51.042 C 106.643 51.088,106.457 51.314,106.183 51.544 C 105.909 51.774,105.726 52.004,105.776 52.054 C 105.915 52.192,104.984 53.343,104.817 53.240 C 104.736 53.190,104.720 53.278,104.780 53.435 C 104.861 53.645,104.831 53.685,104.669 53.585 C 104.535 53.502,104.489 53.513,104.551 53.614 C 104.607 53.704,104.281 54.295,103.826 54.926 C 103.372 55.558,103.000 56.137,103.000 56.214 C 103.000 56.290,102.906 56.299,102.792 56.233 C 102.677 56.167,102.637 56.172,102.702 56.244 C 102.853 56.412,101.860 57.869,101.674 57.754 C 101.597 57.707,101.490 57.785,101.436 57.926 C 101.376 58.084,101.406 58.141,101.514 58.075 C 101.612 58.014,101.596 58.118,101.479 58.305 C 101.362 58.492,101.215 58.613,101.152 58.574 C 101.089 58.535,101.048 58.634,101.060 58.793 C 101.073 58.954,100.985 59.063,100.863 59.038 C 100.741 59.012,100.681 59.055,100.728 59.131 C 100.829 59.295,100.265 60.210,100.140 60.085 C 100.094 60.038,100.056 60.095,100.056 60.212 C 100.056 60.491,99.163 61.833,98.978 61.833 C 98.898 61.833,98.852 61.890,98.874 61.958 C 98.934 62.143,98.165 63.333,97.986 63.333 C 97.902 63.333,97.845 63.390,97.860 63.458 C 97.911 63.702,97.630 64.163,97.484 64.074 C 97.403 64.024,97.382 64.099,97.436 64.241 C 97.491 64.384,97.464 64.500,97.376 64.500 C 97.289 64.500,97.082 64.800,96.917 65.167 C 96.751 65.533,96.552 65.833,96.475 65.833 C 96.397 65.833,96.333 65.950,96.333 66.093 C 96.333 66.247,96.255 66.305,96.141 66.234 C 96.035 66.169,95.993 66.188,96.048 66.276 C 96.183 66.495,95.594 67.369,95.419 67.210 C 95.343 67.140,95.335 67.179,95.403 67.297 C 95.476 67.423,95.286 67.872,94.938 68.396 C 94.614 68.883,94.259 69.481,94.148 69.724 C 94.037 69.968,93.889 70.167,93.818 70.167 C 93.747 70.167,93.641 70.318,93.583 70.502 C 93.524 70.687,93.407 70.796,93.323 70.744 C 93.239 70.692,93.211 70.754,93.259 70.881 C 93.308 71.009,93.233 71.209,93.091 71.327 C 92.949 71.445,92.828 71.625,92.821 71.729 C 92.814 71.832,92.404 72.554,91.909 73.333 C 91.414 74.112,90.856 75.031,90.668 75.375 C 90.480 75.719,90.249 76.000,90.153 76.000 C 90.058 76.000,90.027 76.075,90.083 76.167 C 90.140 76.258,90.107 76.333,90.010 76.333 C 89.913 76.333,89.842 76.390,89.853 76.458 C 89.899 76.749,89.816 76.956,89.532 77.260 C 89.367 77.438,89.225 77.643,89.216 77.715 C 89.173 78.099,88.775 78.817,88.649 78.739 C 88.569 78.690,88.544 78.754,88.593 78.881 C 88.642 79.009,88.566 79.209,88.424 79.327 C 88.283 79.445,88.167 79.649,88.167 79.780 C 88.167 79.912,88.093 79.974,88.002 79.918 C 87.904 79.857,87.882 79.932,87.947 80.102 C 88.027 80.311,87.998 80.351,87.836 80.252 C 87.689 80.161,87.655 80.180,87.734 80.307 C 87.882 80.548,87.107 81.880,86.918 81.709 C 86.842 81.640,86.828 81.668,86.887 81.771 C 87.001 81.971,86.116 83.727,85.973 83.585 C 85.927 83.538,85.888 83.594,85.887 83.708 C 85.885 84.023,83.483 88.167,83.303 88.167 C 83.217 88.167,83.190 88.236,83.242 88.320 C 83.294 88.404,83.223 88.586,83.085 88.725 C 82.947 88.863,82.833 89.096,82.833 89.243 C 82.833 89.390,82.721 89.553,82.584 89.606 C 82.447 89.659,82.375 89.766,82.424 89.845 C 82.518 89.998,81.712 91.379,81.474 91.473 C 81.396 91.503,81.374 91.597,81.425 91.681 C 81.477 91.765,81.436 91.833,81.333 91.833 C 81.231 91.833,81.190 91.902,81.242 91.987 C 81.294 92.071,81.218 92.258,81.073 92.403 C 80.928 92.548,80.857 92.667,80.914 92.667 C 80.972 92.667,80.886 92.892,80.723 93.167 C 80.561 93.442,80.372 93.667,80.303 93.667 C 80.234 93.667,80.217 93.769,80.265 93.895 C 80.313 94.021,80.236 94.241,80.093 94.383 C 79.950 94.526,79.833 94.761,79.833 94.905 C 79.833 95.049,79.772 95.167,79.698 95.167 C 79.623 95.167,79.459 95.429,79.333 95.750 C 79.207 96.071,79.055 96.333,78.996 96.333 C 78.936 96.333,78.805 96.514,78.704 96.734 C 78.435 97.325,77.644 97.450,77.032 96.997 C 76.537 96.631,74.667 93.278,74.667 92.756 C 74.667 92.604,74.592 92.527,74.500 92.583 C 74.408 92.640,74.333 92.619,74.333 92.537 C 74.333 92.454,73.962 91.724,73.508 90.914 C 73.054 90.105,72.721 89.380,72.768 89.304 C 72.815 89.229,72.781 89.167,72.692 89.167 C 72.443 89.167,71.635 87.686,71.767 87.472 C 71.840 87.355,71.811 87.328,71.692 87.401 C 71.522 87.506,71.416 87.201,71.480 86.792 C 71.491 86.723,71.434 86.667,71.353 86.667 C 71.127 86.667,70.600 85.789,70.625 85.455 C 70.638 85.278,70.572 85.205,70.462 85.274 C 70.341 85.348,70.315 85.289,70.386 85.102 C 70.448 84.942,70.428 84.858,70.342 84.912 C 70.193 85.003,69.080 83.181,68.970 82.667 C 68.941 82.529,68.868 82.379,68.808 82.333 C 68.569 82.150,67.036 79.352,67.126 79.263 C 67.179 79.210,67.140 79.167,67.039 79.167 C 66.854 79.167,66.569 78.535,66.638 78.279 C 66.658 78.204,66.610 78.182,66.532 78.230 C 66.375 78.327,65.833 77.304,65.833 76.911 C 65.833 76.777,65.755 76.667,65.659 76.667 C 65.563 76.667,65.378 76.423,65.248 76.125 C 65.119 75.827,65.007 75.658,65.001 75.750 C 64.980 76.024,64.512 75.109,64.506 74.782 C 64.503 74.616,64.434 74.521,64.353 74.571 C 64.201 74.665,63.720 73.690,63.798 73.446 C 63.822 73.370,63.776 73.349,63.695 73.399 C 63.550 73.489,63.082 72.699,63.138 72.458 C 63.154 72.390,63.084 72.333,62.982 72.333 C 62.881 72.333,62.840 72.223,62.892 72.089 C 62.943 71.954,62.902 71.793,62.800 71.730 C 62.681 71.656,62.659 71.699,62.739 71.849 C 62.807 71.978,62.707 71.896,62.517 71.667 C 62.328 71.438,62.213 71.140,62.262 71.005 C 62.311 70.870,62.297 70.814,62.232 70.879 C 62.063 71.048,61.468 70.019,61.605 69.798 C 61.669 69.695,61.642 69.662,61.544 69.723 C 61.374 69.828,60.886 69.234,60.796 68.810 C 60.771 68.693,60.621 68.451,60.464 68.273 C 60.307 68.095,60.218 67.886,60.266 67.808 C 60.314 67.730,60.287 67.667,60.207 67.667 C 60.054 67.667,59.301 66.422,59.339 66.232 C 59.352 66.171,59.299 66.075,59.223 66.019 C 58.862 65.755,57.341 63.290,57.439 63.130 C 57.506 63.021,57.474 62.996,57.359 63.067 C 57.253 63.133,57.167 63.096,57.167 62.987 C 57.167 62.877,57.058 62.703,56.926 62.602 C 56.793 62.500,56.662 62.304,56.634 62.167 C 56.606 62.029,56.451 61.818,56.289 61.697 C 56.127 61.576,56.038 61.407,56.090 61.322 C 56.143 61.237,56.102 61.167,56.000 61.167 C 55.898 61.167,55.855 61.100,55.906 61.017 C 55.957 60.935,55.875 60.821,55.725 60.764 C 55.575 60.706,55.500 60.611,55.558 60.553 C 55.617 60.494,55.515 60.342,55.332 60.214 C 55.150 60.086,55.000 59.873,55.000 59.741 C 55.000 59.608,54.917 59.500,54.816 59.500 C 54.714 59.500,54.676 59.384,54.730 59.241 C 54.785 59.099,54.759 59.026,54.673 59.079 C 54.497 59.188,54.085 58.550,54.084 58.167 C 54.083 58.029,53.990 57.917,53.877 57.917 C 53.658 57.917,52.833 56.804,52.833 56.509 C 52.833 56.412,52.760 56.333,52.671 56.333 C 52.449 56.333,51.984 55.405,52.132 55.257 C 52.197 55.192,52.175 55.164,52.083 55.194 C 51.992 55.225,51.888 55.175,51.853 55.083 C 51.817 54.992,51.647 54.817,51.473 54.696 C 51.300 54.574,51.175 54.387,51.195 54.279 C 51.215 54.171,50.956 53.789,50.618 53.428 C 50.281 53.068,50.038 52.740,50.079 52.699 C 50.224 52.554,49.654 51.667,49.417 51.667 C 49.284 51.667,49.061 51.446,48.921 51.176 C 48.782 50.906,48.481 50.484,48.253 50.238 C 48.026 49.992,47.888 49.707,47.947 49.604 C 48.005 49.501,47.994 49.470,47.921 49.536 C 47.733 49.706,46.624 48.204,46.767 47.973 C 46.837 47.860,46.811 47.827,46.705 47.893 C 46.606 47.954,46.355 47.759,46.146 47.460 C 45.937 47.161,45.724 46.879,45.672 46.833 C 45.290 46.493,44.191 45.026,44.254 44.940 C 44.298 44.881,44.284 44.870,44.223 44.916 C 44.117 44.995,43.573 44.335,43.606 44.167 C 43.615 44.121,43.481 43.984,43.308 43.864 C 43.136 43.743,43.045 43.562,43.106 43.463 C 43.171 43.358,43.141 43.330,43.034 43.396 C 42.851 43.509,42.393 42.875,42.469 42.613 C 42.490 42.537,42.440 42.518,42.356 42.570 C 42.179 42.679,41.568 41.832,41.643 41.583 C 41.672 41.492,41.643 41.468,41.579 41.532 C 41.461 41.650,41.161 41.391,40.582 40.670 C 40.250 40.256,40.250 40.256,40.583 40.491 C 40.767 40.621,40.553 40.381,40.108 39.958 C 39.664 39.535,39.350 39.107,39.412 39.007 C 39.474 38.907,39.429 38.846,39.312 38.871 C 39.194 38.896,39.095 38.804,39.091 38.667 C 39.087 38.529,39.003 38.417,38.905 38.417 C 38.634 38.417,38.155 37.880,38.205 37.634 C 38.230 37.514,38.150 37.438,38.027 37.463 C 37.905 37.489,37.769 37.373,37.725 37.207 C 37.682 37.040,37.482 36.829,37.281 36.737 C 37.081 36.646,36.935 36.480,36.958 36.369 C 36.981 36.258,36.910 36.185,36.799 36.208 C 36.689 36.231,36.595 36.137,36.591 36.000 C 36.587 35.862,36.501 35.750,36.399 35.750 C 36.204 35.750,35.211 34.649,35.306 34.538 C 35.336 34.502,35.305 34.422,35.237 34.361 C 35.169 34.300,35.177 34.362,35.255 34.500 C 35.378 34.716,35.358 34.718,35.115 34.521 C 34.960 34.395,34.833 34.207,34.833 34.102 C 34.833 33.998,34.666 33.838,34.461 33.748 C 34.257 33.657,34.005 33.413,33.903 33.205 C 33.800 32.998,33.656 32.773,33.581 32.705 C 33.507 32.638,33.508 32.689,33.582 32.817 C 33.674 32.975,33.655 33.013,33.526 32.933 C 33.420 32.867,33.333 32.724,33.333 32.614 C 33.333 32.504,33.180 32.318,32.994 32.201 C 32.807 32.085,32.693 31.925,32.742 31.847 C 32.790 31.768,32.699 31.602,32.540 31.477 C 32.272 31.267,32.269 31.275,32.497 31.583 C 32.741 31.912,32.739 31.912,32.379 31.605 C 32.178 31.434,32.029 31.246,32.048 31.188 C 32.068 31.131,32.008 31.059,31.917 31.030 C 31.581 30.922,31.177 30.451,31.280 30.285 C 31.338 30.192,31.308 30.162,31.215 30.220 C 31.003 30.351,30.452 29.770,30.625 29.598 C 30.694 29.529,30.675 29.494,30.583 29.520 C 30.492 29.546,29.929 29.092,29.333 28.510 C 28.738 27.928,28.355 27.512,28.484 27.585 C 28.642 27.675,28.679 27.655,28.598 27.523 C 28.531 27.416,28.418 27.364,28.346 27.409 C 28.155 27.527,27.474 26.751,27.623 26.586 C 27.693 26.509,27.659 26.499,27.547 26.563 C 27.430 26.630,27.254 26.536,27.132 26.340 C 27.015 26.153,26.839 26.000,26.741 26.000 C 26.461 26.000,25.647 25.077,25.789 24.920 C 25.859 24.843,25.822 24.834,25.707 24.901 C 25.585 24.971,25.456 24.913,25.398 24.761 C 25.343 24.617,25.212 24.498,25.107 24.495 C 24.830 24.488,23.408 23.176,23.462 22.977 C 23.488 22.884,23.431 22.856,23.337 22.914 C 23.244 22.972,23.167 22.944,23.167 22.852 C 23.167 22.760,22.960 22.582,22.708 22.456 C 22.456 22.331,22.269 22.139,22.292 22.031 C 22.315 21.922,22.277 21.849,22.208 21.869 C 21.972 21.936,21.324 21.483,21.424 21.321 C 21.480 21.232,21.429 21.179,21.312 21.204 C 21.194 21.229,21.095 21.145,21.091 21.016 C 21.087 20.887,20.948 20.762,20.783 20.738 C 20.362 20.676,19.983 20.329,20.111 20.122 C 20.173 20.021,20.137 19.998,20.024 20.068 C 19.908 20.140,19.769 20.034,19.676 19.802 C 19.591 19.590,19.516 19.515,19.511 19.635 C 19.505 19.755,19.424 19.806,19.331 19.748 C 19.237 19.691,19.206 19.572,19.260 19.484 C 19.314 19.397,19.259 19.346,19.137 19.371 C 19.016 19.396,18.937 19.317,18.962 19.196 C 18.988 19.075,18.936 19.020,18.848 19.074 C 18.759 19.129,18.626 19.073,18.552 18.949 C 18.478 18.826,18.281 18.675,18.114 18.614 C 17.948 18.552,17.859 18.427,17.916 18.335 C 17.973 18.242,17.884 18.165,17.718 18.163 C 17.552 18.161,17.229 18.004,17.000 17.815 C 16.771 17.626,16.689 17.527,16.817 17.595 C 16.973 17.677,17.011 17.653,16.931 17.523 C 16.865 17.416,16.752 17.364,16.680 17.408 C 16.493 17.524,15.480 16.742,15.627 16.595 C 15.695 16.527,15.675 16.490,15.583 16.513 C 15.290 16.584,14.831 16.305,14.943 16.123 C 15.006 16.022,14.972 15.998,14.860 16.067 C 14.755 16.131,14.494 16.009,14.279 15.794 C 13.855 15.370,12.461 15.159,12.257 15.488 " stroke="none" fill="#9ed965" fill-rule="evenodd"></path><path id="path1" d="M288.585 13.292 C 288.531 13.635,288.415 14.329,288.326 14.833 C 288.238 15.338,288.056 16.537,287.922 17.500 C 287.788 18.462,287.563 20.000,287.421 20.917 C 287.279 21.833,287.008 23.633,286.818 24.917 C 286.482 27.190,286.284 28.496,285.754 31.917 C 285.612 32.833,285.340 34.633,285.148 35.917 C 284.957 37.200,284.700 38.887,284.579 39.667 C 284.457 40.446,284.200 42.133,284.007 43.417 C 283.814 44.700,283.547 46.462,283.415 47.333 C 283.282 48.204,283.024 49.929,282.841 51.167 C 282.659 52.404,282.392 54.167,282.249 55.083 C 281.691 58.653,281.491 59.984,281.245 61.750 C 281.105 62.758,280.923 63.921,280.840 64.333 C 280.757 64.746,280.645 65.402,280.592 65.792 L 280.496 66.500 284.998 66.500 C 287.474 66.500,289.502 66.444,289.505 66.375 C 289.511 66.248,289.774 64.481,290.256 61.333 C 290.404 60.371,290.671 58.608,290.851 57.417 C 291.030 56.225,291.285 54.538,291.416 53.667 C 291.548 52.796,291.772 51.296,291.913 50.333 C 293.113 42.185,296.374 37.074,299.945 37.744 C 301.989 38.128,302.561 40.697,301.765 45.917 C 301.625 46.833,301.364 48.558,301.184 49.750 C 301.005 50.942,300.737 52.704,300.589 53.667 C 300.441 54.629,300.171 56.429,299.990 57.667 C 299.519 60.874,299.210 62.932,299.025 64.083 C 298.937 64.633,298.819 65.402,298.764 65.792 L 298.663 66.500 303.165 66.500 C 305.641 66.500,307.667 66.479,307.667 66.454 C 307.667 66.374,308.334 61.830,308.602 60.083 C 308.743 59.167,309.005 57.442,309.184 56.250 C 309.591 53.549,309.929 51.357,310.237 49.417 C 310.480 47.892,310.859 45.163,311.165 42.750 C 312.243 34.233,309.663 28.997,304.245 28.706 C 300.802 28.521,297.819 29.990,295.021 33.250 C 294.610 33.728,294.347 33.938,294.403 33.743 C 294.457 33.555,294.653 32.355,294.840 31.076 C 295.027 29.797,295.291 28.037,295.428 27.167 C 295.565 26.296,295.821 24.608,295.998 23.417 C 296.175 22.225,296.437 20.500,296.581 19.583 C 296.724 18.667,296.988 16.904,297.166 15.667 C 297.345 14.429,297.539 13.248,297.598 13.042 L 297.706 12.667 293.194 12.667 L 288.682 12.667 288.585 13.292 M165.167 15.626 C 165.167 15.695,165.247 16.014,165.346 16.334 C 165.445 16.655,165.631 17.311,165.759 17.792 C 165.888 18.274,166.111 19.099,166.254 19.626 C 166.398 20.152,166.658 21.146,166.833 21.833 C 167.008 22.521,167.264 23.496,167.403 24.000 C 167.541 24.504,167.798 25.479,167.975 26.167 C 168.151 26.854,168.497 28.167,168.742 29.083 C 168.988 30.000,169.376 31.462,169.605 32.333 C 169.834 33.204,170.199 34.592,170.417 35.417 C 170.634 36.242,171.008 37.667,171.249 38.583 C 171.489 39.500,171.942 41.225,172.254 42.417 C 172.567 43.608,172.889 44.808,172.971 45.083 C 173.052 45.358,173.064 45.958,172.996 46.417 C 172.929 46.875,172.747 48.075,172.592 49.083 C 172.436 50.092,172.162 51.892,171.983 53.083 C 171.803 54.275,171.548 55.962,171.417 56.833 C 171.285 57.704,171.063 59.204,170.922 60.167 C 170.781 61.129,170.559 62.592,170.429 63.417 C 170.298 64.242,170.143 65.274,170.085 65.711 L 169.979 66.505 174.446 66.461 L 178.913 66.417 179.045 65.583 C 179.514 62.627,179.713 61.338,179.998 59.417 C 180.175 58.225,180.437 56.500,180.581 55.583 C 180.725 54.667,180.989 52.942,181.167 51.750 C 182.192 44.884,181.739 46.185,185.080 40.500 C 186.616 37.887,188.015 35.501,188.189 35.198 C 188.363 34.894,188.630 34.456,188.782 34.224 C 189.259 33.497,189.672 32.761,189.774 32.458 C 189.828 32.298,189.938 32.167,190.019 32.167 C 190.100 32.167,190.167 32.099,190.167 32.017 C 190.167 31.935,190.480 31.353,190.862 30.725 C 191.244 30.097,192.921 27.258,194.587 24.417 C 196.254 21.575,197.864 18.837,198.166 18.333 C 198.467 17.829,198.854 17.168,199.026 16.864 C 199.199 16.561,199.460 16.128,199.607 15.904 L 199.875 15.495 194.510 15.539 L 189.146 15.583 188.910 16.000 C 188.781 16.229,188.213 17.392,187.648 18.583 C 187.084 19.775,186.116 21.800,185.497 23.083 C 183.872 26.454,182.691 28.959,181.408 31.750 C 181.016 32.604,180.166 34.520,179.528 35.990 L 178.917 37.398 178.713 36.324 C 178.601 35.733,178.389 34.537,178.241 33.667 C 177.600 29.886,177.169 27.537,176.604 24.750 C 176.474 24.108,176.202 22.758,176.000 21.750 C 175.798 20.742,175.527 19.392,175.398 18.750 C 175.268 18.108,175.073 17.115,174.964 16.542 L 174.766 15.500 169.966 15.500 C 167.326 15.500,165.167 15.557,165.167 15.626 M276.167 19.502 C 275.571 19.669,274.258 20.043,273.250 20.333 C 272.242 20.622,270.929 20.998,270.333 21.168 C 269.737 21.338,269.094 21.525,268.903 21.584 C 268.531 21.699,268.358 22.368,267.998 25.083 C 267.901 25.817,267.754 26.754,267.670 27.167 C 267.587 27.579,267.473 28.273,267.416 28.708 L 267.313 29.500 265.414 29.500 L 263.515 29.500 263.418 30.125 C 263.364 30.469,263.247 31.162,263.157 31.667 C 262.989 32.612,262.525 35.874,262.381 37.125 L 262.300 37.833 264.139 37.833 L 265.979 37.833 265.892 38.458 C 265.845 38.802,265.665 39.983,265.492 41.083 C 265.320 42.183,265.097 43.608,264.997 44.250 C 264.897 44.892,264.708 46.092,264.578 46.917 C 264.250 48.986,263.683 52.695,263.495 54.000 C 262.014 64.311,265.406 68.413,274.244 67.001 C 276.276 66.676,276.102 66.972,276.593 63.000 C 276.735 61.854,276.918 60.392,277.001 59.750 C 277.272 57.657,277.406 57.834,275.542 57.831 C 271.722 57.825,271.641 57.205,273.750 44.167 C 273.876 43.387,274.058 42.262,274.155 41.667 C 274.328 40.596,274.621 38.936,274.765 38.208 C 274.839 37.835,274.857 37.833,277.974 37.833 L 281.108 37.833 281.296 36.542 C 281.545 34.836,281.941 32.327,282.158 31.083 C 282.461 29.340,282.759 29.500,279.192 29.500 L 276.050 29.500 276.201 28.625 C 276.358 27.710,276.598 26.126,277.155 22.305 C 277.338 21.052,277.536 19.833,277.595 19.597 C 277.723 19.084,277.663 19.080,276.167 19.502 M211.833 28.766 C 205.325 29.965,201.000 33.818,198.006 41.083 C 195.607 46.906,195.524 55.652,197.825 60.333 C 202.720 70.294,217.110 69.291,222.931 58.583 C 223.886 56.825,224.667 55.121,224.667 54.792 C 224.667 54.668,224.733 54.495,224.814 54.408 C 225.172 54.023,226.126 49.689,226.333 47.510 C 227.107 39.342,225.152 33.772,220.368 30.524 C 219.809 30.144,219.303 29.833,219.243 29.833 C 219.183 29.833,218.897 29.722,218.609 29.586 C 217.164 28.906,213.489 28.462,211.833 28.766 M233.092 29.708 C 232.999 30.012,232.942 30.380,232.013 36.667 C 231.830 37.904,231.564 39.667,231.422 40.583 C 231.280 41.500,231.011 43.300,230.825 44.583 C 230.638 45.867,230.378 47.592,230.247 48.417 C 228.177 61.407,230.048 66.913,236.608 67.138 C 240.606 67.275,243.576 65.696,246.365 61.951 C 247.398 60.565,247.434 60.595,247.199 62.624 C 247.095 63.518,246.965 64.756,246.909 65.375 L 246.807 66.500 250.796 66.500 L 254.785 66.500 254.974 64.792 C 255.292 61.914,256.089 56.028,256.592 52.833 C 256.729 51.962,256.986 50.275,257.163 49.083 C 257.340 47.892,257.603 46.167,257.748 45.250 C 258.130 42.833,258.430 40.894,258.830 38.250 C 259.191 35.867,259.526 33.701,259.810 31.917 C 259.897 31.367,260.014 30.598,260.070 30.208 L 260.171 29.500 255.669 29.500 C 253.193 29.500,251.164 29.556,251.161 29.625 C 251.151 29.857,250.197 36.239,249.747 39.083 C 249.472 40.825,248.980 44.034,248.661 46.167 C 247.450 54.270,243.642 59.688,240.341 58.004 C 238.701 57.167,238.263 54.424,239.008 49.667 C 239.474 46.696,239.697 45.226,239.997 43.167 C 240.177 41.929,240.442 40.167,240.586 39.250 C 240.730 38.333,240.991 36.608,241.167 35.417 C 241.342 34.225,241.599 32.500,241.738 31.583 C 241.876 30.667,241.992 29.823,241.995 29.708 C 241.999 29.547,241.007 29.500,237.578 29.500 C 234.186 29.500,233.141 29.549,233.092 29.708 M214.863 37.759 C 216.770 39.100,217.528 41.822,217.169 46.043 C 216.551 53.328,213.405 58.833,209.859 58.833 C 205.465 58.833,203.976 51.383,206.778 43.417 C 208.624 38.170,212.043 35.777,214.863 37.759 M203.848 82.708 C 203.740 83.465,203.550 84.721,203.426 85.500 C 203.303 86.279,203.044 87.967,202.850 89.250 C 202.342 92.630,202.046 94.540,201.754 96.333 C 201.612 97.204,201.339 98.967,201.148 100.250 C 200.957 101.533,200.693 103.258,200.562 104.083 C 200.432 104.908,200.179 106.558,200.001 107.750 C 199.822 108.942,199.557 110.667,199.412 111.583 C 199.266 112.500,199.002 114.225,198.823 115.417 C 198.645 116.608,198.385 118.296,198.245 119.167 C 198.105 120.037,197.882 121.462,197.750 122.333 C 197.286 125.390,196.818 128.431,196.577 129.958 C 196.134 132.761,195.840 134.747,195.837 134.958 C 195.831 135.332,204.598 135.252,204.742 134.877 C 204.803 134.718,205.006 133.537,205.193 132.252 C 205.380 130.968,205.635 129.279,205.758 128.500 C 206.122 126.210,206.453 124.073,206.831 121.583 C 207.025 120.300,207.286 118.612,207.409 117.833 C 207.532 117.054,207.790 115.367,207.981 114.083 C 208.173 112.800,208.446 111.037,208.589 110.167 C 208.731 109.296,208.991 107.608,209.167 106.417 C 209.342 105.225,209.601 103.519,209.741 102.625 C 210.277 99.208,210.488 97.843,210.830 95.583 C 211.025 94.300,211.296 92.537,211.433 91.667 C 211.570 90.796,211.825 89.146,212.000 88.000 C 212.648 83.744,212.830 82.568,212.935 81.958 L 213.044 81.333 208.544 81.333 L 204.044 81.333 203.848 82.708 M220.917 82.330 C 218.283 83.543,216.897 87.484,218.000 90.624 C 219.580 95.118,225.691 94.349,226.931 89.500 C 228.180 84.610,224.777 80.553,220.917 82.330 M185.277 83.591 C 175.674 84.899,167.443 93.376,164.951 104.524 C 164.211 107.837,164.160 108.180,163.961 111.202 C 163.229 122.341,166.665 130.363,173.750 134.055 C 174.620 134.509,175.726 134.928,177.417 135.444 C 178.896 135.896,185.968 135.893,187.917 135.440 C 191.176 134.681,192.926 133.939,192.898 133.329 C 192.791 131.037,192.171 124.833,192.048 124.833 C 192.010 124.833,191.590 124.990,191.114 125.182 C 190.639 125.374,190.073 125.601,189.856 125.687 C 186.043 127.199,180.405 126.476,177.587 124.115 C 170.873 118.489,172.999 100.485,181.000 95.216 C 185.070 92.536,190.437 92.074,194.818 94.027 C 195.405 94.289,195.905 94.484,195.928 94.460 C 195.951 94.436,196.279 93.254,196.657 91.833 C 197.489 88.710,197.775 87.669,198.092 86.606 C 198.439 85.442,198.436 85.436,197.292 84.879 C 194.411 83.478,189.766 82.979,185.277 83.591 M323.167 88.000 C 322.938 88.077,322.188 88.304,321.500 88.505 C 320.813 88.706,319.912 88.970,319.500 89.091 C 319.087 89.213,318.188 89.473,317.500 89.669 C 316.813 89.866,315.989 90.124,315.669 90.244 L 315.088 90.461 314.803 92.522 C 313.935 98.791,314.244 98.167,312.008 98.167 L 310.203 98.167 310.084 98.625 C 310.018 98.877,309.863 99.796,309.738 100.667 C 309.613 101.537,309.397 103.000,309.259 103.917 C 309.120 104.833,309.005 105.790,309.003 106.042 L 309.000 106.500 310.823 106.500 L 312.646 106.500 312.562 107.125 C 312.515 107.469,312.410 108.087,312.327 108.500 C 312.245 108.912,312.063 110.037,311.922 111.000 C 311.782 111.962,311.551 113.462,311.409 114.333 C 311.171 115.788,310.916 117.429,310.230 121.917 C 309.085 129.411,310.151 133.429,313.750 135.182 L 314.917 135.750 317.917 135.749 C 321.195 135.748,322.825 135.455,322.841 134.863 C 322.845 134.709,322.916 134.058,322.999 133.417 C 323.082 132.775,323.266 131.313,323.410 130.167 C 323.553 129.021,323.716 127.727,323.773 127.292 L 323.877 126.500 322.230 126.499 C 318.957 126.498,318.429 125.121,319.388 119.083 C 319.980 115.358,320.333 113.170,320.585 111.667 C 320.932 109.592,321.326 106.971,321.330 106.708 C 321.333 106.549,322.090 106.500,324.554 106.500 L 327.774 106.500 328.060 104.458 C 328.364 102.295,328.743 99.829,328.931 98.792 L 329.044 98.167 325.887 98.167 L 322.731 98.167 322.929 96.792 C 323.039 96.035,323.254 94.592,323.409 93.583 C 324.386 87.219,324.402 87.584,323.167 88.000 M246.083 97.494 C 243.293 98.096,240.635 100.002,238.755 102.750 C 238.112 103.689,237.975 103.819,238.052 103.417 C 238.104 103.142,238.192 102.242,238.246 101.417 C 238.301 100.592,238.389 99.523,238.442 99.042 L 238.538 98.167 234.686 98.167 C 232.567 98.167,230.833 98.185,230.832 98.208 C 230.830 98.267,230.523 100.732,230.246 102.917 C 229.715 107.099,229.334 109.828,228.584 114.833 C 228.453 115.704,228.192 117.467,228.003 118.750 C 227.814 120.033,227.552 121.796,227.420 122.667 C 227.288 123.537,227.028 125.300,226.841 126.583 C 226.535 128.698,226.362 129.838,225.842 133.167 C 225.749 133.762,225.672 134.456,225.670 134.708 L 225.667 135.167 229.913 135.167 L 234.160 135.167 234.235 134.792 C 234.428 133.830,234.678 132.247,234.927 130.417 C 235.076 129.317,235.298 127.742,235.420 126.917 C 235.542 126.092,235.801 124.329,235.995 123.000 C 236.946 116.489,237.121 115.589,237.857 113.443 C 241.201 103.700,247.570 103.744,246.167 113.500 C 246.081 114.096,245.895 115.333,245.753 116.250 C 245.612 117.167,245.345 118.929,245.159 120.167 C 244.974 121.404,244.715 123.129,244.584 124.000 C 244.453 124.871,244.196 126.596,244.013 127.833 C 243.830 129.071,243.564 130.833,243.421 131.750 C 243.278 132.667,243.114 133.810,243.057 134.292 L 242.953 135.167 247.217 135.167 C 249.562 135.167,251.519 135.103,251.567 135.026 C 251.615 134.949,251.810 133.768,252.000 132.401 C 252.190 131.035,252.456 129.204,252.590 128.333 C 252.725 127.462,252.982 125.737,253.161 124.500 C 254.497 115.271,255.047 113.012,256.729 109.833 C 259.051 105.447,262.515 104.923,263.589 108.795 C 263.914 109.964,263.871 111.475,263.430 114.417 C 263.292 115.333,263.029 117.133,262.844 118.417 C 262.659 119.700,262.391 121.500,262.248 122.417 C 261.789 125.373,260.930 131.224,260.609 133.583 L 260.404 135.083 264.644 135.128 C 266.975 135.152,268.923 135.133,268.972 135.084 C 269.020 135.035,269.155 134.303,269.272 133.456 C 269.388 132.609,269.605 131.129,269.754 130.167 C 271.052 121.765,272.254 113.605,272.517 111.417 C 273.024 107.205,272.504 102.623,271.292 100.605 C 268.244 95.529,260.586 96.456,256.323 102.415 C 255.262 103.900,255.245 103.905,255.013 102.823 C 254.827 101.952,254.284 100.632,253.944 100.221 C 251.958 97.819,249.127 96.836,246.083 97.494 M294.333 97.437 C 291.604 97.786,286.995 99.407,285.966 100.379 C 285.847 100.491,285.445 100.790,285.071 101.044 C 277.538 106.155,273.090 122.106,276.920 130.275 C 277.056 130.564,277.167 130.849,277.167 130.909 C 277.167 131.187,278.639 133.162,279.355 133.845 C 280.924 135.343,282.059 135.750,284.667 135.750 C 287.028 135.750,286.944 135.769,289.000 134.778 C 290.516 134.047,292.917 131.314,294.200 128.857 L 294.691 127.917 294.592 129.167 C 294.538 129.854,294.447 131.485,294.390 132.792 L 294.287 135.167 298.394 135.167 L 302.500 135.167 302.501 134.208 C 302.508 128.149,303.178 121.342,304.582 113.083 C 304.722 112.258,304.980 110.683,305.156 109.583 C 305.332 108.483,305.596 106.871,305.744 106.000 C 305.892 105.129,306.120 103.742,306.251 102.917 C 306.383 102.092,306.567 101.013,306.662 100.519 C 306.756 100.025,306.833 99.520,306.833 99.396 C 306.833 99.012,306.040 98.767,301.167 97.647 C 300.375 97.466,295.326 97.310,294.333 97.437 M343.167 97.495 C 342.081 97.698,340.967 97.983,340.583 98.156 C 340.400 98.239,339.825 98.493,339.305 98.721 C 335.526 100.380,332.443 103.986,329.945 109.670 C 327.204 115.909,327.508 126.716,330.539 130.750 C 332.664 133.580,334.263 134.706,337.282 135.499 C 338.614 135.849,342.599 135.986,344.357 135.742 C 347.447 135.314,352.169 133.579,352.165 132.873 C 352.161 132.049,351.657 125.565,351.577 125.314 C 351.493 125.049,351.383 125.073,350.442 125.552 C 343.527 129.075,336.667 127.126,336.667 121.637 L 336.667 121.048 339.458 120.934 C 340.994 120.871,342.662 120.752,343.167 120.668 C 345.828 120.228,346.357 120.115,347.583 119.727 C 353.212 117.946,355.838 114.352,355.830 108.437 C 355.827 105.617,355.004 102.528,353.964 101.428 C 353.846 101.304,353.563 100.962,353.333 100.670 C 351.416 98.222,346.872 96.803,343.167 97.495 M216.329 98.292 C 216.321 98.489,215.700 102.762,215.438 104.417 C 215.307 105.242,215.042 106.967,214.850 108.250 C 214.465 110.815,214.104 113.159,213.758 115.333 C 213.635 116.112,213.376 117.800,213.183 119.083 C 212.990 120.367,212.717 122.167,212.575 123.083 C 212.433 124.000,212.175 125.688,212.000 126.833 C 211.266 131.658,211.167 132.297,211.005 133.250 C 210.912 133.800,210.835 134.457,210.834 134.711 L 210.833 135.172 215.289 135.128 L 219.744 135.083 220.020 133.083 C 220.171 131.983,220.420 130.296,220.573 129.333 C 220.725 128.371,220.991 126.646,221.163 125.500 C 221.517 123.139,221.912 120.581,222.242 118.500 C 222.366 117.721,222.630 115.996,222.829 114.667 C 223.028 113.337,223.291 111.612,223.413 110.833 C 223.534 110.054,223.754 108.554,223.900 107.500 C 224.046 106.446,224.240 105.208,224.330 104.750 C 224.420 104.292,224.648 102.867,224.836 101.583 C 225.024 100.300,225.216 99.006,225.263 98.708 L 225.348 98.167 220.841 98.167 C 218.362 98.167,216.331 98.223,216.329 98.292 M346.074 105.902 C 347.359 106.656,347.855 108.452,347.185 109.928 C 346.892 110.574,345.784 111.666,345.420 111.668 C 345.327 111.668,345.042 111.777,344.787 111.910 C 343.628 112.515,337.494 113.187,337.502 112.708 C 337.529 111.027,339.369 107.896,341.204 106.411 C 342.350 105.482,344.902 105.216,346.074 105.902 M296.596 106.040 C 296.718 106.163,296.633 106.846,295.997 110.833 C 295.197 115.855,294.871 117.560,294.402 119.167 C 291.168 130.270,283.526 129.270,285.161 117.957 C 285.838 113.266,288.397 108.674,291.408 106.748 C 292.698 105.923,296.026 105.469,296.596 106.040 M220.832 150.812 C 216.161 152.351,215.554 160.965,220.032 162.176 C 223.773 163.188,226.770 160.074,226.456 155.501 C 226.226 152.144,223.553 149.915,220.832 150.812 M255.480 150.887 C 250.824 152.629,250.278 160.976,254.741 162.188 C 258.316 163.159,261.069 160.579,261.079 156.250 C 261.088 152.124,258.583 149.725,255.480 150.887 M322.616 150.897 C 317.973 152.628,317.543 161.097,322.043 162.177 C 324.843 162.849,327.269 161.346,328.147 158.398 C 329.525 153.771,326.373 149.496,322.616 150.897 M169.521 153.625 C 169.423 154.060,169.221 155.279,169.072 156.333 C 168.922 157.387,168.701 158.887,168.579 159.667 C 168.458 160.446,168.195 162.171,167.996 163.500 C 167.796 164.829,167.534 166.554,167.412 167.333 C 167.291 168.112,167.033 169.800,166.840 171.083 C 166.161 175.597,166.009 176.598,165.747 178.250 C 165.405 180.415,164.909 183.663,164.017 189.583 C 163.838 190.775,163.568 192.537,163.419 193.500 C 163.269 194.463,163.001 196.225,162.823 197.417 C 162.108 202.218,162.021 202.771,161.909 203.292 L 161.792 203.833 166.313 203.833 C 169.816 203.833,170.834 203.786,170.837 203.625 C 170.839 203.510,170.917 202.929,171.012 202.333 C 171.106 201.737,171.284 200.612,171.408 199.833 C 171.532 199.054,171.791 197.367,171.984 196.083 C 172.176 194.800,172.451 193.000,172.593 192.083 C 172.736 191.167,172.996 189.442,173.172 188.250 C 173.347 187.058,173.605 185.352,173.745 184.458 C 174.146 181.904,174.449 179.938,174.830 177.417 C 175.025 176.133,175.296 174.371,175.432 173.500 C 175.569 172.629,175.825 170.942,176.002 169.750 C 176.179 168.558,176.441 166.833,176.585 165.917 C 176.729 165.000,176.991 163.275,177.167 162.083 C 177.342 160.892,177.598 159.204,177.735 158.333 C 177.872 157.462,178.100 155.962,178.242 155.000 C 178.384 154.037,178.535 153.156,178.578 153.042 C 178.639 152.878,177.691 152.833,174.178 152.833 L 169.700 152.833 169.521 153.625 M241.481 156.575 C 241.440 156.616,240.434 156.922,239.245 157.255 C 238.056 157.588,236.708 157.972,236.250 158.108 C 235.792 158.245,234.899 158.497,234.266 158.668 C 232.809 159.063,232.744 159.141,232.526 160.750 C 232.427 161.483,232.195 163.096,232.012 164.333 C 231.828 165.571,231.675 166.640,231.672 166.708 C 231.669 166.777,230.812 166.833,229.768 166.833 L 227.869 166.833 227.750 167.292 C 227.685 167.544,227.527 168.481,227.399 169.375 C 227.271 170.269,227.057 171.769,226.922 172.708 C 226.787 173.648,226.675 174.623,226.672 174.875 L 226.667 175.333 228.496 175.333 L 230.325 175.333 230.234 175.875 C 230.185 176.173,230.076 176.754,229.993 177.167 C 229.910 177.579,229.761 178.479,229.663 179.167 C 229.372 181.211,228.868 184.474,228.583 186.167 C 226.624 197.775,227.217 201.764,231.206 203.803 C 233.762 205.111,240.461 204.861,240.514 203.456 C 240.522 203.251,240.592 202.633,240.670 202.083 C 240.748 201.533,240.929 199.996,241.073 198.667 C 241.216 197.338,241.371 196.023,241.417 195.745 L 241.501 195.240 239.792 195.245 C 236.161 195.255,235.979 194.211,237.745 183.500 C 237.979 182.083,238.266 180.307,238.741 177.333 C 238.880 176.463,238.995 175.656,238.997 175.542 C 238.999 175.382,239.742 175.333,242.149 175.333 L 245.297 175.333 245.415 174.875 C 245.479 174.623,245.634 173.742,245.758 172.917 C 246.192 170.035,246.495 168.079,246.602 167.458 L 246.710 166.833 243.605 166.833 L 240.500 166.833 240.512 166.292 C 240.519 165.994,240.586 165.375,240.660 164.917 C 240.735 164.458,240.963 162.996,241.167 161.667 C 241.370 160.337,241.598 158.875,241.673 158.417 C 241.917 156.924,241.843 156.213,241.481 156.575 M308.632 156.590 C 308.582 156.640,307.576 156.945,306.396 157.268 C 305.216 157.591,303.875 157.968,303.417 158.106 C 302.958 158.244,302.067 158.497,301.436 158.667 C 300.011 159.053,300.047 159.014,299.830 160.420 C 299.400 163.213,299.172 164.649,299.009 165.583 C 298.913 166.133,298.835 166.640,298.834 166.708 C 298.834 166.777,297.974 166.833,296.924 166.833 L 295.015 166.833 294.926 167.375 C 294.877 167.673,294.758 168.479,294.662 169.167 C 294.565 169.854,294.373 171.167,294.234 172.083 C 294.095 173.000,293.939 174.106,293.886 174.542 L 293.791 175.333 295.641 175.333 L 297.492 175.333 297.409 175.792 C 297.363 176.044,297.213 177.037,297.074 178.000 C 296.935 178.963,296.708 180.463,296.569 181.333 C 296.225 183.484,295.715 186.749,295.423 188.667 C 295.290 189.537,295.103 190.737,295.008 191.333 C 293.576 200.260,296.083 204.667,302.594 204.667 C 304.374 204.667,306.400 204.383,307.156 204.028 L 307.750 203.748 308.027 201.166 C 308.180 199.745,308.384 198.021,308.480 197.333 C 308.577 196.646,308.659 195.894,308.662 195.662 L 308.667 195.240 306.928 195.245 C 303.559 195.254,303.216 193.882,304.579 185.833 C 304.834 184.328,305.229 181.888,305.752 178.583 C 305.883 177.758,306.049 176.708,306.122 176.250 L 306.254 175.417 309.443 175.371 L 312.632 175.326 312.713 174.705 C 312.823 173.862,313.493 169.450,313.668 168.417 C 313.746 167.958,313.814 167.415,313.821 167.208 L 313.833 166.833 310.750 166.833 C 308.392 166.833,307.668 166.784,307.672 166.625 C 307.681 166.291,308.658 159.738,308.995 157.750 C 309.088 157.200,309.165 156.694,309.166 156.625 C 309.167 156.481,308.767 156.455,308.632 156.590 M197.191 166.521 C 194.545 167.358,192.167 169.259,190.423 171.930 C 189.826 172.845,189.718 172.647,189.977 171.112 C 190.073 170.546,190.202 169.352,190.265 168.458 L 190.379 166.833 186.386 166.833 L 182.394 166.833 182.201 168.708 C 181.917 171.474,181.343 175.723,180.583 180.667 C 180.450 181.537,180.192 183.262,180.010 184.500 C 179.829 185.737,179.562 187.500,179.419 188.417 C 179.275 189.333,179.008 191.096,178.825 192.333 C 178.643 193.571,178.385 195.296,178.252 196.167 C 178.119 197.037,177.902 198.463,177.770 199.333 C 177.637 200.204,177.448 201.404,177.349 202.000 C 177.250 202.596,177.169 203.252,177.168 203.458 L 177.167 203.833 181.637 203.833 L 186.108 203.833 186.297 202.375 C 186.497 200.829,186.985 197.514,187.419 194.750 C 187.563 193.833,187.824 192.108,188.000 190.917 C 188.897 184.822,189.294 183.144,190.505 180.333 C 193.560 173.238,198.942 173.128,198.613 180.167 C 198.530 181.955,198.438 182.696,197.756 187.083 C 197.614 188.000,197.341 189.800,197.151 191.083 C 196.961 192.367,196.707 194.054,196.586 194.833 C 196.466 195.612,196.212 197.300,196.023 198.583 C 195.834 199.867,195.603 201.404,195.510 202.000 C 195.416 202.596,195.339 203.252,195.337 203.458 L 195.333 203.833 199.728 203.833 L 204.123 203.833 204.238 203.208 C 204.408 202.279,204.922 198.980,205.750 193.500 C 205.881 192.629,206.109 191.167,206.255 190.250 C 208.354 177.072,208.431 173.612,206.707 170.040 C 205.099 166.709,201.177 165.259,197.191 166.521 M278.500 166.271 C 273.991 167.102,270.781 168.725,267.831 171.667 C 258.927 180.544,257.855 200.011,266.057 203.884 C 270.793 206.120,275.748 203.769,278.988 197.750 L 279.527 196.750 279.433 198.417 C 279.382 199.333,279.291 200.927,279.232 201.958 L 279.124 203.833 283.210 203.833 L 287.297 203.833 287.403 200.708 C 287.461 198.990,287.584 196.721,287.676 195.667 C 288.003 191.937,288.347 188.732,288.581 187.250 C 289.220 183.202,289.511 181.424,290.243 177.083 C 290.608 174.921,291.164 171.532,291.425 169.874 C 291.558 169.026,291.686 168.238,291.709 168.124 C 291.760 167.864,289.564 167.115,287.371 166.644 C 285.801 166.307,279.697 166.050,278.500 166.271 M371.510 166.511 C 363.386 168.748,357.646 178.150,357.678 189.167 C 357.704 198.066,361.389 203.452,368.180 204.515 C 370.513 204.881,376.901 204.318,377.750 203.673 C 377.842 203.603,378.142 203.492,378.417 203.427 C 379.206 203.239,381.669 202.021,381.765 201.772 C 381.812 201.648,381.768 200.542,381.667 199.315 C 381.566 198.088,381.439 196.388,381.385 195.537 C 381.269 193.700,381.237 193.668,380.120 194.297 C 379.337 194.738,378.509 195.060,376.634 195.654 C 371.402 197.309,366.344 194.675,366.335 190.292 L 366.333 189.667 368.625 189.658 C 371.517 189.646,374.552 189.303,376.167 188.805 C 382.583 186.826,385.134 183.897,385.444 178.157 C 385.762 172.250,383.486 168.359,378.667 166.570 C 377.425 166.110,373.099 166.074,371.510 166.511 M215.661 167.042 C 215.658 167.156,215.542 168.000,215.403 168.917 C 214.681 173.682,214.320 176.034,213.730 179.833 C 213.595 180.704,213.341 182.354,213.167 183.500 C 212.992 184.646,212.733 186.333,212.592 187.250 C 212.450 188.167,212.176 189.967,211.984 191.250 C 211.791 192.533,211.526 194.258,211.396 195.083 C 211.265 195.908,211.013 197.558,210.836 198.750 C 210.659 199.942,210.437 201.404,210.344 202.000 C 210.250 202.596,210.172 203.252,210.170 203.458 L 210.167 203.833 214.563 203.833 L 218.958 203.833 219.074 203.292 C 219.196 202.720,219.467 200.993,219.997 197.417 C 220.174 196.225,220.437 194.500,220.583 193.583 C 220.728 192.667,220.991 190.942,221.167 189.750 C 221.342 188.558,221.602 186.852,221.743 185.958 C 222.194 183.106,222.472 181.309,222.833 178.917 C 223.026 177.633,223.292 175.908,223.422 175.083 C 223.553 174.258,223.814 172.533,224.003 171.250 C 224.191 169.967,224.413 168.542,224.496 168.083 C 224.579 167.625,224.651 167.156,224.657 167.042 C 224.664 166.880,223.661 166.833,220.167 166.833 C 216.681 166.833,215.665 166.880,215.661 167.042 M250.422 167.042 C 250.385 167.156,250.266 167.887,250.157 168.667 C 250.049 169.446,249.858 170.721,249.734 171.500 C 249.610 172.279,249.350 173.967,249.157 175.250 C 248.963 176.533,248.707 178.221,248.586 179.000 C 248.466 179.779,248.204 181.504,248.004 182.833 C 247.804 184.162,247.536 185.925,247.409 186.750 C 247.282 187.575,247.029 189.225,246.847 190.417 C 246.665 191.608,246.405 193.296,246.270 194.167 C 245.696 197.860,245.466 199.370,245.164 201.417 C 244.988 202.608,244.842 203.640,244.839 203.708 C 244.836 203.777,246.849 203.833,249.312 203.833 L 253.791 203.833 253.886 203.042 C 253.939 202.606,254.094 201.537,254.232 200.667 C 254.369 199.796,254.639 198.033,254.832 196.750 C 255.026 195.467,255.297 193.704,255.435 192.833 C 255.573 191.963,255.830 190.275,256.005 189.083 C 256.181 187.892,256.443 186.167,256.588 185.250 C 256.734 184.333,256.996 182.608,257.172 181.417 C 257.347 180.225,257.606 178.519,257.747 177.625 C 258.383 173.605,258.536 172.618,258.842 170.583 C 259.022 169.392,259.216 168.060,259.274 167.625 L 259.380 166.833 254.935 166.833 C 251.526 166.833,250.474 166.882,250.422 167.042 M317.527 167.872 C 317.416 168.447,317.212 169.704,317.073 170.667 C 316.935 171.629,316.709 173.129,316.572 174.000 C 316.435 174.871,316.178 176.558,316.000 177.750 C 315.822 178.942,315.559 180.667,315.415 181.583 C 315.271 182.500,315.008 184.225,314.831 185.417 C 314.654 186.608,314.392 188.333,314.247 189.250 C 314.102 190.167,313.880 191.615,313.753 192.469 C 313.626 193.323,313.479 194.223,313.426 194.469 C 313.373 194.715,313.221 195.704,313.087 196.667 C 312.814 198.635,312.436 201.089,312.176 202.583 C 312.080 203.133,312.001 203.640,312.001 203.708 C 312.000 203.777,314.025 203.833,316.500 203.833 C 318.975 203.833,321.001 203.777,321.003 203.708 C 321.008 203.534,321.441 200.671,322.270 195.333 C 322.405 194.463,322.659 192.813,322.833 191.667 C 323.008 190.521,323.267 188.833,323.408 187.917 C 323.550 187.000,323.824 185.200,324.016 183.917 C 324.209 182.633,324.474 180.908,324.604 180.083 C 324.735 179.258,324.987 177.608,325.164 176.417 C 325.341 175.225,325.603 173.500,325.747 172.583 C 326.145 170.040,326.508 167.621,326.548 167.250 C 326.582 166.925,326.471 166.916,322.156 166.872 L 317.729 166.828 317.527 167.872 M329.000 167.386 C 329.000 167.974,329.100 168.738,330.239 176.875 C 330.371 177.815,330.638 179.783,330.833 181.250 C 331.029 182.717,331.299 184.704,331.434 185.667 C 331.569 186.629,331.823 188.504,332.000 189.833 C 332.177 191.162,332.432 193.037,332.567 194.000 C 332.997 197.064,333.511 200.869,333.698 202.375 L 333.878 203.833 338.427 203.833 L 342.977 203.833 343.572 202.596 C 343.899 201.916,344.167 201.319,344.167 201.269 C 344.167 201.220,344.419 200.633,344.728 199.965 C 345.268 198.795,345.564 198.144,346.455 196.167 C 346.682 195.662,347.123 194.700,347.434 194.027 C 347.745 193.354,348.000 192.767,348.000 192.722 C 348.000 192.677,348.262 192.095,348.583 191.428 C 348.904 190.761,349.167 190.173,349.167 190.122 C 349.167 190.071,349.542 189.236,350.000 188.266 C 350.458 187.297,350.833 186.472,350.833 186.433 C 350.833 186.395,351.096 185.794,351.417 185.098 C 351.738 184.403,352.262 183.264,352.583 182.568 C 352.904 181.873,353.167 181.263,353.167 181.214 C 353.167 181.165,353.385 180.665,353.652 180.104 C 354.472 178.381,355.500 176.137,355.500 176.071 C 355.500 176.036,355.767 175.424,356.092 174.712 C 356.418 174.000,356.752 173.267,356.834 173.083 C 356.917 172.900,357.288 172.086,357.659 171.275 C 358.030 170.464,358.333 169.777,358.333 169.748 C 358.333 169.720,358.596 169.136,358.917 168.451 C 359.238 167.766,359.500 167.121,359.500 167.019 C 359.500 166.887,358.073 166.833,354.523 166.833 L 349.546 166.833 349.249 167.778 C 349.085 168.297,348.850 168.916,348.727 169.153 C 348.603 169.389,348.502 169.657,348.501 169.747 C 348.500 169.886,348.208 170.694,347.656 172.083 C 347.072 173.555,346.667 174.665,346.667 174.794 C 346.667 174.879,346.562 175.167,346.433 175.433 C 345.758 176.833,341.133 189.963,340.481 192.333 C 340.286 193.043,340.258 192.884,339.977 189.417 C 339.813 187.400,339.566 184.362,339.428 182.667 C 339.289 180.971,339.023 177.708,338.836 175.417 C 338.650 173.125,338.426 170.462,338.339 169.500 C 338.252 168.537,338.178 167.544,338.174 167.292 L 338.167 166.833 333.583 166.833 L 329.000 166.833 329.000 167.386 M375.083 174.353 C 377.088 174.906,377.833 177.634,376.428 179.275 C 375.217 180.690,372.499 181.500,368.963 181.500 L 367.175 181.500 367.278 180.958 C 368.091 176.674,371.879 173.468,375.083 174.353 M281.539 174.774 C 281.624 174.827,281.648 175.051,281.593 175.272 C 281.537 175.493,281.340 176.629,281.155 177.796 C 279.919 185.584,279.813 186.120,278.974 188.833 C 276.262 197.605,269.833 198.173,269.833 189.641 C 269.834 182.767,273.700 175.787,278.124 174.671 C 278.744 174.514,281.241 174.590,281.539 174.774 " stroke="none" fill="#040404" fill-rule="evenodd"></path><path id="path2" d="M142.701 15.659 C 142.931 16.027,143.092 15.981,142.942 15.591 C 142.888 15.449,142.766 15.333,142.670 15.333 C 142.561 15.333,142.572 15.453,142.701 15.659 M14.000 15.559 C 14.000 15.677,17.519 18.203,17.588 18.134 C 17.626 18.096,17.509 17.939,17.328 17.784 C 17.148 17.630,17.000 17.544,17.000 17.595 C 17.000 17.675,15.055 16.250,14.833 16.008 C 14.706 15.869,14.000 15.489,14.000 15.559 M12.167 16.083 C 12.167 16.313,12.195 16.500,12.231 16.500 C 12.266 16.500,12.330 16.313,12.374 16.083 C 12.418 15.854,12.389 15.667,12.310 15.667 C 12.231 15.667,12.167 15.854,12.167 16.083 M140.250 16.167 C 140.084 16.350,139.880 16.500,139.796 16.500 C 139.661 16.500,138.554 17.362,137.599 18.208 C 137.418 18.369,137.218 18.500,137.153 18.500 C 137.088 18.500,136.991 18.617,136.936 18.759 C 136.881 18.902,137.380 18.579,138.043 18.042 C 138.707 17.505,139.512 16.884,139.833 16.663 C 140.558 16.163,140.905 15.833,140.704 15.833 C 140.620 15.833,140.416 15.983,140.250 16.167 M142.616 18.899 C 142.548 19.072,142.531 19.254,142.579 19.302 C 142.731 19.454,142.865 19.205,142.801 18.888 C 142.743 18.598,142.734 18.599,142.616 18.899 M18.905 19.291 C 19.173 19.587,19.429 19.793,19.474 19.748 C 19.519 19.703,19.524 19.648,19.486 19.625 C 19.448 19.602,19.192 19.396,18.917 19.167 L 18.417 18.751 18.905 19.291 M135.833 19.667 C 135.512 19.937,135.330 20.160,135.427 20.162 C 135.525 20.165,135.820 19.942,136.083 19.667 C 136.690 19.034,136.585 19.034,135.833 19.667 M19.667 19.896 C 19.667 19.987,22.623 22.500,22.731 22.500 C 22.781 22.500,22.560 22.238,22.239 21.917 C 21.918 21.596,21.602 21.333,21.536 21.332 C 21.470 21.332,21.061 20.994,20.626 20.582 C 19.900 19.896,19.667 19.728,19.667 19.896 M134.116 21.098 C 133.859 21.319,133.709 21.498,133.782 21.494 C 133.967 21.487,134.729 20.840,134.649 20.760 C 134.613 20.724,134.373 20.876,134.116 21.098 M132.750 22.187 C 132.475 22.451,132.310 22.666,132.382 22.666 C 132.565 22.667,133.418 21.861,133.325 21.777 C 133.284 21.739,133.025 21.924,132.750 22.187 M13.186 22.167 C 13.178 22.396,13.244 22.696,13.333 22.833 C 13.539 23.152,13.539 22.809,13.333 22.167 L 13.200 21.750 13.186 22.167 M141.910 22.272 C 141.852 22.535,141.694 23.152,141.559 23.643 C 141.424 24.134,141.346 24.569,141.387 24.609 C 141.427 24.649,141.624 24.071,141.825 23.325 C 142.027 22.579,142.152 21.930,142.104 21.882 C 142.056 21.833,141.969 22.009,141.910 22.272 M24.000 23.643 C 24.504 24.110,24.992 24.493,25.083 24.493 C 25.254 24.493,25.073 24.330,23.810 23.355 C 23.217 22.897,23.252 22.950,24.000 23.643 M131.749 23.085 C 131.565 23.214,130.815 23.895,130.082 24.597 C 128.477 26.136,129.082 25.733,130.920 24.040 C 132.209 22.852,132.408 22.623,131.749 23.085 M25.909 25.306 C 26.271 25.688,26.639 26.000,26.726 26.000 C 26.945 26.000,26.357 25.370,25.750 24.955 C 25.317 24.658,25.338 24.706,25.909 25.306 M128.122 26.354 C 127.869 26.544,127.578 26.860,127.477 27.057 C 127.362 27.281,127.552 27.167,127.980 26.758 C 128.601 26.162,128.749 25.990,128.625 26.005 C 128.602 26.008,128.376 26.165,128.122 26.354 M30.018 29.248 C 31.704 30.943,33.116 32.331,33.156 32.332 C 33.271 32.334,32.443 31.462,29.725 28.717 C 28.336 27.314,27.144 26.167,27.076 26.167 C 27.008 26.167,28.331 27.553,30.018 29.248 M126.000 28.398 C 125.679 28.703,125.155 29.245,124.836 29.602 C 124.516 29.958,124.797 29.727,125.461 29.088 C 126.124 28.449,126.667 27.905,126.667 27.879 C 126.667 27.781,126.564 27.861,126.000 28.398 M140.453 28.055 C 140.268 28.527,140.298 28.769,140.516 28.551 C 140.616 28.451,140.670 28.230,140.636 28.059 C 140.576 27.761,140.569 27.761,140.453 28.055 M14.683 28.095 C 14.658 28.366,15.179 30.043,15.263 29.960 C 15.303 29.919,15.193 29.443,15.018 28.901 C 14.843 28.360,14.692 27.997,14.683 28.095 M139.871 30.120 C 139.534 31.021,139.477 31.254,139.634 31.083 C 139.820 30.882,140.193 29.804,140.107 29.718 C 140.073 29.684,139.967 29.865,139.871 30.120 M122.698 31.750 C 122.499 31.979,122.401 32.167,122.482 32.167 C 122.562 32.167,122.751 31.979,122.901 31.750 C 123.051 31.521,123.149 31.333,123.117 31.333 C 123.086 31.333,122.897 31.521,122.698 31.750 M121.353 33.152 C 120.930 33.603,120.208 34.372,119.750 34.861 C 119.292 35.350,118.854 35.862,118.777 36.000 C 118.644 36.236,119.697 35.177,121.552 33.208 C 122.005 32.727,122.319 32.333,122.249 32.333 C 122.179 32.333,121.776 32.702,121.353 33.152 M34.067 33.476 C 34.242 33.672,34.453 33.833,34.536 33.833 C 34.770 33.833,34.521 33.522,34.116 33.310 C 33.753 33.119,33.752 33.121,34.067 33.476 M16.604 34.333 C 16.660 34.654,16.813 35.104,16.942 35.333 L 17.179 35.750 17.066 35.333 C 17.003 35.104,16.851 34.654,16.727 34.333 L 16.501 33.750 16.604 34.333 M138.533 34.450 C 138.287 35.254,138.406 35.373,138.667 34.583 C 138.777 34.250,138.834 33.945,138.795 33.906 C 138.755 33.866,138.637 34.111,138.533 34.450 M34.840 34.119 C 34.844 34.191,35.174 34.606,35.575 35.041 C 35.976 35.477,36.287 35.720,36.267 35.581 C 36.229 35.321,34.828 33.886,34.840 34.119 M117.875 36.797 C 117.577 37.052,117.333 37.329,117.333 37.413 C 117.333 37.496,117.127 37.787,116.875 38.058 C 116.623 38.330,116.503 38.503,116.608 38.443 C 116.809 38.329,118.575 36.333,118.475 36.334 C 118.443 36.334,118.173 36.542,117.875 36.797 M37.668 37.097 C 37.668 37.233,38.361 38.064,39.740 39.583 C 40.607 40.539,39.927 39.576,38.857 38.333 C 38.265 37.646,37.755 37.052,37.724 37.014 C 37.692 36.976,37.667 37.013,37.668 37.097 M137.027 38.590 C 136.748 39.203,136.801 39.334,137.103 38.777 C 137.244 38.517,137.328 38.273,137.290 38.235 C 137.252 38.196,137.134 38.357,137.027 38.590 M115.725 39.281 C 115.464 39.630,115.175 39.999,115.083 40.099 C 114.992 40.199,114.617 40.640,114.250 41.078 C 113.883 41.517,113.508 41.960,113.417 42.063 C 113.325 42.166,113.027 42.550,112.755 42.917 C 112.483 43.283,112.120 43.733,111.950 43.917 C 111.602 44.290,111.278 44.833,111.403 44.833 C 111.448 44.833,111.935 44.242,112.486 43.518 C 113.036 42.795,113.586 42.102,113.706 41.977 C 114.406 41.254,116.354 38.799,116.284 38.728 C 116.238 38.682,115.987 38.931,115.725 39.281 M40.687 40.825 C 40.894 41.105,41.124 41.333,41.199 41.333 C 41.406 41.333,40.995 40.744,40.631 40.516 C 40.352 40.342,40.360 40.382,40.687 40.825 M42.311 42.708 C 42.885 43.419,43.392 44.000,43.438 44.000 C 43.564 44.000,42.024 42.071,41.619 41.721 C 41.425 41.553,41.737 41.998,42.311 42.708 M135.673 41.989 C 135.461 42.384,135.452 42.550,135.647 42.429 C 135.794 42.338,136.023 41.667,135.907 41.667 C 135.873 41.667,135.767 41.812,135.673 41.989 M20.112 43.461 C 20.164 43.669,20.273 43.879,20.353 43.929 C 20.582 44.070,20.526 43.765,20.258 43.407 C 20.025 43.095,20.020 43.097,20.112 43.461 M43.694 44.458 C 43.828 44.619,44.309 45.200,44.761 45.750 C 45.213 46.300,45.621 46.788,45.667 46.833 C 45.714 46.879,46.305 47.667,46.982 48.583 C 48.198 50.230,48.694 50.840,48.407 50.333 C 47.918 49.472,45.844 46.765,44.512 45.250 C 44.350 45.067,44.129 44.748,44.020 44.542 C 43.911 44.335,43.738 44.167,43.635 44.167 C 43.520 44.167,43.542 44.278,43.694 44.458 M110.429 45.762 C 110.104 46.087,110.096 46.183,110.404 46.065 C 110.534 46.015,110.682 45.868,110.732 45.737 C 110.850 45.429,110.754 45.437,110.429 45.762 M21.846 47.122 C 21.826 47.446,22.354 48.667,22.515 48.667 C 22.596 48.667,22.520 48.385,22.348 48.042 C 22.175 47.698,21.995 47.304,21.947 47.167 C 21.897 47.024,21.854 47.005,21.846 47.122 M108.937 47.615 C 108.673 47.925,108.493 48.216,108.538 48.261 C 108.583 48.306,108.826 48.073,109.077 47.744 C 109.665 46.973,109.563 46.880,108.937 47.615 M108.241 48.628 C 107.939 48.839,107.116 50.005,107.206 50.095 C 107.253 50.142,107.564 49.803,107.896 49.340 C 108.228 48.878,108.481 48.501,108.458 48.503 C 108.435 48.504,108.338 48.560,108.241 48.628 M132.357 49.273 C 132.157 49.720,132.161 49.732,132.424 49.475 C 132.579 49.323,132.675 49.109,132.638 48.997 C 132.601 48.886,132.474 49.010,132.357 49.273 M22.839 49.426 C 22.836 49.524,22.943 49.749,23.078 49.926 C 23.213 50.104,23.325 50.171,23.328 50.074 C 23.331 49.976,23.223 49.751,23.089 49.574 C 22.954 49.396,22.842 49.329,22.839 49.426 M48.838 50.886 C 48.828 51.157,49.183 51.667,49.381 51.664 C 49.520 51.662,49.527 51.623,49.402 51.539 C 49.303 51.472,49.136 51.267,49.032 51.083 C 48.929 50.900,48.841 50.811,48.838 50.886 M106.333 51.083 C 106.333 51.221,106.266 51.333,106.184 51.333 C 106.103 51.333,105.986 51.463,105.925 51.621 C 105.844 51.832,105.927 51.804,106.236 51.514 C 106.467 51.296,106.617 51.054,106.568 50.976 C 106.434 50.759,106.333 50.805,106.333 51.083 M131.116 51.752 C 130.963 52.072,130.873 52.333,130.915 52.333 C 131.029 52.333,131.535 51.313,131.459 51.237 C 131.423 51.200,131.268 51.432,131.116 51.752 M105.488 52.313 C 105.344 52.462,105.056 52.865,104.849 53.208 C 104.642 53.552,104.409 53.833,104.331 53.833 C 104.253 53.833,104.144 53.977,104.088 54.152 C 104.001 54.426,103.436 55.236,102.829 55.958 C 102.732 56.073,102.707 56.167,102.772 56.167 C 102.838 56.167,102.738 56.335,102.551 56.542 C 102.106 57.032,101.535 57.934,101.755 57.798 C 101.850 57.740,102.223 57.255,102.585 56.721 C 102.947 56.187,103.830 54.935,104.547 53.940 C 105.775 52.236,106.088 51.694,105.488 52.313 M50.414 53.232 C 50.670 53.568,50.921 53.802,50.970 53.752 C 51.091 53.631,50.456 52.791,50.173 52.696 C 50.050 52.655,50.158 52.896,50.414 53.232 M130.027 53.924 C 129.748 54.537,129.801 54.667,130.103 54.110 C 130.244 53.850,130.328 53.606,130.290 53.568 C 130.252 53.530,130.134 53.690,130.027 53.924 M51.162 54.324 C 51.366 54.706,51.667 54.923,51.667 54.688 C 51.667 54.523,51.210 54.000,51.066 54.000 C 51.023 54.000,51.066 54.146,51.162 54.324 M25.667 55.031 C 25.667 55.175,25.779 55.386,25.917 55.500 C 26.235 55.764,26.232 55.516,25.911 55.093 C 25.715 54.834,25.667 54.822,25.667 55.031 M129.386 55.125 C 129.329 55.285,129.252 55.473,129.214 55.542 C 129.047 55.852,129.323 55.624,129.568 55.250 C 129.719 55.019,129.763 54.833,129.665 54.833 C 129.569 54.833,129.443 54.965,129.386 55.125 M128.409 56.958 C 128.068 57.577,127.643 58.327,127.464 58.625 C 127.251 58.981,127.215 59.136,127.361 59.078 C 127.567 58.996,129.263 55.833,129.102 55.833 C 129.062 55.833,128.750 56.340,128.409 56.958 M52.833 56.574 C 52.833 56.667,54.340 58.921,54.779 59.486 C 54.809 59.524,54.865 59.524,54.904 59.485 C 54.943 59.446,54.493 58.747,53.904 57.931 C 53.315 57.116,52.833 56.505,52.833 56.574 M27.416 58.167 C 27.569 58.676,28.655 60.473,28.903 60.626 C 29.002 60.687,28.955 60.541,28.798 60.301 C 28.641 60.061,28.277 59.427,27.989 58.891 C 27.380 57.760,27.243 57.587,27.416 58.167 M101.127 58.563 C 100.126 60.059,99.219 61.441,99.092 61.667 C 98.589 62.560,100.355 60.076,101.373 58.460 C 101.786 57.802,101.578 57.890,101.127 58.563 M126.874 59.792 C 126.263 60.680,125.772 61.558,125.947 61.450 C 126.044 61.390,126.393 60.889,126.721 60.337 C 127.340 59.298,127.427 58.988,126.874 59.792 M29.000 60.934 C 29.000 61.074,30.188 62.833,30.282 62.833 C 30.343 62.833,30.000 62.187,29.623 61.590 C 29.338 61.140,29.000 60.784,29.000 60.934 M98.353 62.667 C 98.147 63.033,98.011 63.333,98.051 63.333 C 98.090 63.333,98.321 63.033,98.564 62.667 C 98.806 62.300,98.942 62.000,98.866 62.000 C 98.790 62.000,98.559 62.300,98.353 62.667 M124.724 63.218 C 123.495 65.074,122.833 66.140,122.833 66.265 C 122.833 66.344,123.365 65.598,124.015 64.608 C 124.664 63.617,125.169 62.780,125.136 62.747 C 125.103 62.714,124.917 62.926,124.724 63.218 M97.549 63.792 C 97.490 63.952,97.276 64.308,97.075 64.583 C 96.556 65.291,96.296 65.833,96.474 65.833 C 96.558 65.833,96.722 65.602,96.839 65.319 C 96.956 65.036,97.135 64.718,97.237 64.611 C 97.623 64.204,98.000 63.500,97.832 63.500 C 97.735 63.500,97.608 63.631,97.549 63.792 M57.995 64.324 C 58.264 64.826,58.529 64.914,58.308 64.427 C 58.201 64.192,58.048 64.000,57.967 64.000 C 57.887 64.000,57.900 64.146,57.995 64.324 M31.823 65.447 C 32.010 65.830,32.244 66.195,32.345 66.257 C 32.560 66.390,32.145 65.564,31.755 65.083 C 31.567 64.851,31.587 64.961,31.823 65.447 M95.160 67.695 C 94.568 68.619,94.053 69.456,94.016 69.555 C 93.980 69.654,93.883 69.813,93.801 69.909 C 93.487 70.279,92.000 72.745,92.000 72.896 C 92.000 73.207,92.392 72.621,93.434 70.750 C 93.588 70.475,93.764 70.212,93.826 70.167 C 93.888 70.121,94.180 69.671,94.475 69.167 C 94.770 68.662,95.310 67.771,95.676 67.185 C 96.042 66.599,96.318 66.096,96.290 66.067 C 96.261 66.039,95.753 66.771,95.160 67.695 M59.623 66.909 C 59.870 67.317,60.098 67.624,60.131 67.591 C 60.201 67.521,59.365 66.167,59.252 66.167 C 59.210 66.167,59.377 66.501,59.623 66.909 M32.858 67.141 C 33.074 67.515,33.459 68.068,33.714 68.369 C 34.043 68.757,33.976 68.589,33.485 67.789 C 32.731 66.561,32.223 66.036,32.858 67.141 M120.903 69.042 C 120.101 70.256,119.226 71.531,118.959 71.875 C 118.691 72.219,118.535 72.497,118.611 72.493 C 118.755 72.487,119.833 71.092,119.833 70.913 C 119.833 70.827,120.070 70.487,120.876 69.417 C 121.555 68.514,122.570 66.833,122.436 66.833 C 122.394 66.833,121.704 67.827,120.903 69.042 M60.987 69.208 C 61.181 69.506,61.691 70.331,62.119 71.042 C 62.547 71.752,62.963 72.333,63.044 72.333 C 63.125 72.333,63.035 72.136,62.845 71.894 C 62.655 71.653,62.500 71.353,62.500 71.228 C 62.500 71.102,62.425 71.000,62.333 71.000 C 62.242 71.000,62.167 70.913,62.167 70.807 C 62.167 70.701,61.996 70.383,61.788 70.099 C 61.580 69.815,61.305 69.377,61.177 69.125 C 61.049 68.873,60.874 68.667,60.789 68.667 C 60.704 68.667,60.793 68.910,60.987 69.208 M34.169 69.042 C 34.171 69.065,34.623 69.721,35.174 70.500 C 35.725 71.279,36.305 72.122,36.463 72.374 C 36.621 72.625,36.810 72.832,36.884 72.832 C 36.958 72.833,36.788 72.515,36.507 72.125 C 36.225 71.735,35.619 70.873,35.159 70.208 C 34.450 69.183,34.157 68.838,34.169 69.042 M118.030 73.162 C 117.814 73.454,117.758 73.621,117.893 73.570 C 118.085 73.496,118.591 72.667,118.444 72.667 C 118.418 72.667,118.231 72.890,118.030 73.162 M37.107 73.208 C 37.348 73.605,39.167 75.855,39.167 75.756 C 39.167 75.624,37.161 73.000,37.060 73.000 C 37.016 73.000,37.037 73.094,37.107 73.208 M91.275 74.044 C 91.014 74.524,90.909 74.804,91.041 74.667 C 91.414 74.279,92.044 73.166,91.889 73.169 C 91.812 73.170,91.536 73.564,91.275 74.044 M63.885 73.986 C 64.083 74.348,64.271 74.618,64.302 74.587 C 64.382 74.507,63.865 73.540,63.681 73.425 C 63.595 73.373,63.688 73.625,63.885 73.986 M117.050 74.458 C 116.793 74.802,116.527 75.108,116.458 75.139 C 116.390 75.169,116.333 75.289,116.333 75.405 C 116.333 75.520,116.175 75.758,115.981 75.933 C 115.505 76.360,114.614 77.667,114.797 77.667 C 114.878 77.667,115.044 77.479,115.167 77.250 C 115.289 77.021,115.452 76.833,115.528 76.833 C 115.604 76.833,115.667 76.759,115.667 76.668 C 115.667 76.576,116.047 76.033,116.512 75.459 C 117.361 74.412,117.748 73.833,117.598 73.833 C 117.553 73.833,117.307 74.115,117.050 74.458 M64.512 74.917 C 64.512 75.008,64.619 75.271,64.750 75.500 C 64.881 75.729,64.988 75.842,64.988 75.750 C 64.988 75.658,64.881 75.396,64.750 75.167 C 64.619 74.938,64.512 74.825,64.512 74.917 M90.417 75.500 C 90.274 75.775,90.196 76.000,90.241 76.000 C 90.287 76.000,90.441 75.775,90.583 75.500 C 90.726 75.225,90.804 75.000,90.759 75.000 C 90.713 75.000,90.559 75.225,90.417 75.500 M39.606 76.417 C 39.992 77.075,40.000 77.085,40.000 76.880 C 40.000 76.783,39.846 76.527,39.657 76.310 L 39.314 75.917 39.606 76.417 M89.589 76.931 C 89.434 77.168,89.335 77.391,89.370 77.426 C 89.406 77.461,89.566 77.267,89.727 76.995 C 90.086 76.387,89.978 76.337,89.589 76.931 M40.169 77.208 C 40.168 77.369,40.237 77.500,40.322 77.500 C 40.408 77.500,40.527 77.656,40.587 77.846 C 40.648 78.036,40.737 78.152,40.786 78.103 C 40.835 78.054,40.717 77.767,40.524 77.465 C 40.285 77.092,40.171 77.010,40.169 77.208 M66.355 78.156 C 66.654 78.701,66.960 79.108,67.034 79.062 C 67.108 79.016,67.054 78.863,66.912 78.722 C 66.771 78.581,66.507 78.173,66.324 77.816 C 66.142 77.459,65.952 77.167,65.902 77.167 C 65.852 77.167,66.056 77.612,66.355 78.156 M89.110 77.792 C 88.723 78.424,88.223 79.485,88.348 79.407 C 88.525 79.298,89.382 77.667,89.263 77.667 C 89.221 77.667,89.152 77.723,89.110 77.792 M41.270 78.741 C 41.324 78.884,41.417 79.002,41.476 79.004 C 41.535 79.007,41.767 79.307,41.992 79.671 C 42.217 80.035,42.460 80.333,42.533 80.333 C 42.606 80.333,42.397 79.958,42.068 79.500 C 41.439 78.625,41.102 78.305,41.270 78.741 M112.865 79.923 C 112.387 80.523,112.139 80.937,112.313 80.844 C 112.486 80.751,112.785 80.430,112.976 80.129 C 113.167 79.829,113.447 79.415,113.598 79.208 C 114.194 78.398,113.687 78.893,112.865 79.923 M87.619 80.455 C 87.149 81.215,86.630 82.333,86.747 82.333 C 86.846 82.333,88.208 79.819,88.142 79.757 C 88.110 79.727,87.874 80.041,87.619 80.455 M67.773 80.662 C 67.934 80.934,68.091 81.131,68.122 81.100 C 68.223 80.999,67.785 80.167,67.630 80.167 C 67.548 80.167,67.613 80.389,67.773 80.662 M42.667 80.547 C 42.667 80.604,42.854 80.839,43.083 81.068 C 43.313 81.297,43.500 81.426,43.500 81.355 C 43.500 81.283,43.313 81.049,43.083 80.833 C 42.854 80.618,42.667 80.489,42.667 80.547 M111.075 82.125 C 110.387 82.928,110.348 83.005,110.835 82.601 C 111.317 82.201,112.118 81.167,111.946 81.167 C 111.919 81.167,111.527 81.598,111.075 82.125 M68.341 81.681 C 68.443 81.872,68.560 81.995,68.601 81.955 C 68.717 81.838,68.481 81.333,68.310 81.333 C 68.224 81.333,68.239 81.490,68.341 81.681 M43.916 82.166 C 43.972 82.257,44.183 82.418,44.384 82.523 C 44.747 82.714,44.748 82.713,44.433 82.358 C 44.114 81.999,43.724 81.854,43.916 82.166 M69.244 83.292 C 69.479 83.773,69.751 84.167,69.848 84.167 C 69.945 84.167,69.906 84.049,69.762 83.905 C 69.618 83.761,69.498 83.554,69.496 83.446 C 69.494 83.338,69.340 83.063,69.154 82.833 C 68.877 82.493,68.894 82.577,69.244 83.292 M85.774 83.810 C 85.348 84.531,85.000 85.187,85.000 85.269 C 85.001 85.420,85.962 83.879,86.421 82.991 C 86.912 82.043,86.540 82.513,85.774 83.810 M45.136 83.417 C 45.313 83.770,46.167 84.630,46.167 84.455 C 46.167 84.398,45.897 84.066,45.568 83.718 C 45.238 83.369,45.044 83.233,45.136 83.417 M70.008 84.681 C 70.110 84.872,70.227 84.995,70.267 84.955 C 70.384 84.838,70.148 84.333,69.976 84.333 C 69.891 84.333,69.905 84.490,70.008 84.681 M108.369 85.238 C 108.068 85.637,107.357 86.471,106.790 87.091 C 106.222 87.710,105.906 88.120,106.087 88.002 C 106.269 87.884,106.867 87.264,107.417 86.625 C 108.882 84.920,109.207 84.499,109.054 84.505 C 108.978 84.508,108.670 84.838,108.369 85.238 M46.333 84.819 C 46.333 84.903,46.390 84.997,46.458 85.028 C 46.527 85.058,46.949 85.496,47.396 86.000 C 47.843 86.504,48.903 87.667,49.751 88.583 C 50.599 89.500,51.670 90.662,52.132 91.167 C 52.594 91.671,53.009 92.046,53.053 92.000 C 53.097 91.954,52.199 90.942,51.056 89.750 C 49.913 88.558,48.411 86.927,47.718 86.125 C 46.442 84.648,46.333 84.546,46.333 84.819 M84.276 86.345 C 84.015 86.810,83.831 87.220,83.868 87.257 C 83.905 87.294,84.171 86.914,84.459 86.412 C 84.747 85.910,84.930 85.500,84.866 85.500 C 84.802 85.500,84.536 85.880,84.276 86.345 M71.503 87.230 C 71.499 87.408,72.494 89.167,72.598 89.167 C 72.676 89.167,71.970 87.764,71.676 87.333 C 71.582 87.196,71.504 87.149,71.503 87.230 M83.431 87.774 C 83.272 88.188,83.447 88.244,83.659 87.848 C 83.761 87.656,83.776 87.500,83.690 87.500 C 83.605 87.500,83.488 87.623,83.431 87.774 M104.999 89.026 C 104.679 89.392,104.417 89.708,104.417 89.727 C 104.417 89.746,104.713 89.480,105.075 89.136 C 105.437 88.793,105.700 88.477,105.658 88.436 C 105.616 88.394,105.320 88.660,104.999 89.026 M73.083 90.167 C 73.316 90.625,73.543 91.000,73.589 91.000 C 73.635 91.000,73.482 90.625,73.250 90.167 C 73.018 89.708,72.790 89.333,72.744 89.333 C 72.699 89.333,72.851 89.708,73.083 90.167 M82.215 90.038 C 82.016 90.293,81.499 91.344,81.503 91.484 C 81.505 91.539,81.735 91.219,82.014 90.775 C 82.475 90.040,82.616 89.523,82.215 90.038 M101.750 92.333 C 100.469 93.617,99.490 94.667,99.573 94.667 C 99.710 94.667,103.111 91.289,103.901 90.370 C 104.666 89.479,103.913 90.166,101.750 92.333 M53.333 92.273 C 53.333 92.491,55.302 94.333,55.535 94.333 C 55.638 94.333,55.691 94.311,55.653 94.284 C 55.615 94.257,55.077 93.758,54.458 93.175 C 53.840 92.591,53.333 92.186,53.333 92.273 M80.597 92.941 C 80.438 93.354,80.613 93.411,80.826 93.014 C 80.928 92.823,80.942 92.667,80.857 92.667 C 80.772 92.667,80.655 92.790,80.597 92.941 M74.667 92.879 C 74.666 93.055,75.819 95.333,75.909 95.333 C 76.009 95.333,75.356 93.879,74.979 93.259 C 74.808 92.979,74.668 92.808,74.667 92.879 M79.952 94.167 C 79.904 94.350,79.933 94.500,80.016 94.500 C 80.099 94.500,80.167 94.469,80.167 94.430 C 80.167 94.392,80.212 94.242,80.268 94.097 C 80.323 93.952,80.295 93.833,80.204 93.833 C 80.113 93.833,80.000 93.983,79.952 94.167 M56.500 95.234 C 56.500 95.306,57.167 96.015,57.981 96.808 C 60.009 98.782,60.555 99.279,60.480 99.083 C 60.387 98.838,56.500 95.079,56.500 95.234 M97.661 96.365 L 97.287 96.917 97.743 96.447 C 97.995 96.189,98.163 95.941,98.118 95.896 C 98.073 95.851,97.868 96.062,97.661 96.365 M96.568 97.433 C 96.244 97.721,96.199 97.807,96.430 97.692 C 96.761 97.526,97.293 97.000,97.130 97.000 C 97.087 97.000,96.834 97.195,96.568 97.433 M94.250 99.581 C 93.700 100.082,93.306 100.494,93.375 100.496 C 93.443 100.498,93.931 100.089,94.458 99.587 C 95.701 98.403,95.547 98.399,94.250 99.581 M61.750 100.313 C 61.933 100.527,62.308 100.857,62.583 101.045 L 63.083 101.388 62.583 100.900 C 62.308 100.631,61.933 100.302,61.750 100.167 L 61.417 99.922 61.750 100.313 M92.417 101.236 C 92.142 101.456,91.954 101.672,92.000 101.714 C 92.046 101.757,92.308 101.576,92.583 101.313 C 93.192 100.730,93.100 100.688,92.417 101.236 M63.239 101.649 C 63.301 101.749,63.507 101.914,63.696 102.016 C 63.943 102.148,64.008 102.148,63.927 102.018 C 63.865 101.917,63.660 101.752,63.471 101.651 C 63.224 101.519,63.158 101.518,63.239 101.649 M90.891 102.603 C 90.447 103.026,90.233 103.271,90.417 103.147 C 90.869 102.840,91.932 101.833,91.803 101.833 C 91.746 101.833,91.335 102.180,90.891 102.603 M64.667 102.905 C 64.667 102.945,64.910 103.146,65.208 103.352 L 65.750 103.726 65.346 103.280 C 64.986 102.882,64.667 102.706,64.667 102.905 M89.763 103.478 C 89.714 103.558,88.453 104.562,86.962 105.709 C 85.470 106.856,84.025 108.045,83.750 108.351 C 83.341 108.806,83.389 108.783,84.014 108.225 C 84.435 107.850,84.997 107.403,85.264 107.232 C 85.531 107.061,85.838 106.845,85.945 106.752 C 86.052 106.659,86.333 106.433,86.568 106.250 C 86.804 106.067,87.138 105.804,87.310 105.667 C 87.482 105.529,87.874 105.229,88.183 105.000 C 88.929 104.445,90.113 103.343,89.968 103.338 C 89.905 103.335,89.813 103.399,89.763 103.478 M66.599 104.496 C 67.604 105.326,68.833 106.213,68.833 106.108 C 68.833 105.998,66.051 103.833,65.910 103.833 C 65.848 103.833,66.158 104.132,66.599 104.496 M69.000 106.219 C 69.000 106.260,69.275 106.504,69.612 106.760 C 69.948 107.017,70.171 107.142,70.107 107.038 C 69.975 106.825,69.000 106.103,69.000 106.219 M71.052 107.898 C 71.493 108.321,71.896 108.667,71.948 108.667 C 72.123 108.667,71.616 108.154,70.933 107.642 C 70.273 107.147,70.277 107.155,71.052 107.898 M85.814 119.671 C 85.952 120.122,86.093 120.463,86.127 120.429 C 86.221 120.334,85.842 119.025,85.693 118.933 C 85.621 118.889,85.675 119.221,85.814 119.671 M68.271 124.256 C 68.213 124.405,68.173 124.652,68.181 124.805 C 68.189 124.958,68.261 124.862,68.342 124.592 C 68.499 124.066,68.444 123.805,68.271 124.256 M66.417 132.167 C 66.354 132.364,66.340 132.563,66.386 132.608 C 66.432 132.654,66.521 132.530,66.583 132.333 C 66.646 132.136,66.660 131.937,66.614 131.892 C 66.568 131.846,66.479 131.970,66.417 132.167 M64.872 145.500 C 64.872 145.821,64.906 145.952,64.948 145.792 C 64.990 145.631,64.990 145.369,64.948 145.208 C 64.906 145.048,64.872 145.179,64.872 145.500 M90.539 146.500 C 90.539 146.821,90.573 146.952,90.615 146.792 C 90.657 146.631,90.657 146.369,90.615 146.208 C 90.573 146.048,90.539 146.179,90.539 146.500 M64.717 148.167 C 64.717 148.671,64.748 148.877,64.786 148.625 C 64.824 148.373,64.824 147.960,64.786 147.708 C 64.748 147.456,64.717 147.662,64.717 148.167 M90.714 150.083 C 90.716 150.542,90.748 150.709,90.786 150.456 C 90.825 150.203,90.824 149.828,90.784 149.623 C 90.744 149.418,90.713 149.625,90.714 150.083 M90.718 153.917 C 90.719 154.467,90.750 154.672,90.787 154.372 C 90.825 154.072,90.824 153.622,90.786 153.372 C 90.748 153.122,90.717 153.367,90.718 153.917 M64.714 154.917 C 64.716 155.375,64.748 155.543,64.786 155.289 C 64.825 155.036,64.824 154.661,64.784 154.456 C 64.744 154.251,64.713 154.458,64.714 154.917 M64.872 158.833 C 64.872 159.154,64.906 159.285,64.948 159.125 C 64.990 158.965,64.990 158.702,64.948 158.542 C 64.906 158.381,64.872 158.512,64.872 158.833 M90.042 162.583 C 90.044 162.950,90.078 163.080,90.118 162.873 C 90.158 162.666,90.156 162.366,90.115 162.206 C 90.073 162.047,90.040 162.217,90.042 162.583 M65.375 164.417 C 65.377 164.783,65.411 164.914,65.451 164.706 C 65.491 164.499,65.490 164.199,65.448 164.040 C 65.406 163.880,65.374 164.050,65.375 164.417 M65.935 169.750 C 66.072 170.363,66.168 170.496,66.164 170.069 C 66.163 169.894,66.085 169.637,65.992 169.500 C 65.869 169.317,65.853 169.385,65.935 169.750 M89.019 171.111 C 89.009 171.218,88.951 171.443,88.892 171.611 C 88.808 171.848,88.831 171.874,88.991 171.726 C 89.105 171.621,89.162 171.396,89.118 171.226 C 89.075 171.056,89.030 171.004,89.019 171.111 M69.514 185.093 C 69.506 185.282,69.618 185.582,69.762 185.760 C 69.907 185.938,69.974 185.984,69.911 185.862 C 69.849 185.740,69.737 185.440,69.663 185.195 C 69.555 184.838,69.526 184.818,69.514 185.093 M84.852 187.519 C 84.749 187.813,84.694 188.083,84.730 188.119 C 84.766 188.155,84.879 187.943,84.981 187.648 C 85.084 187.354,85.139 187.083,85.103 187.048 C 85.068 187.012,84.955 187.224,84.852 187.519 M72.695 194.175 C 72.792 194.455,72.903 194.653,72.941 194.615 C 73.023 194.532,72.709 193.667,72.596 193.667 C 72.553 193.667,72.597 193.895,72.695 194.175 M73.011 194.961 C 73.005 195.076,73.069 195.301,73.153 195.461 C 73.237 195.620,73.397 195.996,73.509 196.297 C 73.620 196.598,73.736 196.820,73.765 196.791 C 73.794 196.761,73.721 196.478,73.603 196.160 C 73.235 195.173,73.022 194.741,73.011 194.961 M75.940 202.083 C 76.325 202.741,76.333 202.751,76.333 202.546 C 76.333 202.449,76.179 202.193,75.990 201.977 L 75.647 201.583 75.940 202.083 M76.333 202.930 C 76.333 203.165,77.186 204.167,77.383 204.164 C 77.511 204.162,77.522 204.117,77.414 204.039 C 77.321 203.972,77.040 203.667,76.789 203.362 C 76.538 203.057,76.333 202.863,76.333 202.930 M78.667 203.174 C 78.667 203.270,78.483 203.533,78.258 203.758 C 78.033 203.983,77.917 204.167,78.000 204.167 C 78.201 204.167,79.000 203.362,79.000 203.159 C 79.000 203.072,78.925 203.000,78.833 203.000 C 78.742 203.000,78.667 203.078,78.667 203.174 " stroke="none" fill="#84b96c" fill-rule="evenodd"></path><path id="path3" d="" stroke="none" fill="#5c3838" fill-rule="evenodd"></path><path id="path4" d="" stroke="none" fill="#043c38" fill-rule="evenodd"></path></g></svg>